<svg width="216" height="52" viewBox="0 0 216 52" fill="none" xmlns="http://www.w3.org/2000/svg">
<path d="M1.1 20.75H1.225C1.34167 20.75 1.45 20.7 1.55 20.6C1.65 20.5 1.73333 20.3833 1.8 20.25C1.88333 20.1167 1.94167 19.975 1.975 19.825C2.00833 19.6583 2.025 19.5083 2.025 19.375V6.05C2.025 5.93333 2.00833 5.8 1.975 5.65C1.94167 5.5 1.89167 5.35833 1.825 5.225C1.75833 5.09167 1.675 4.98333 1.575 4.9C1.475 4.8 1.35833 4.75 1.225 4.75H1.1V4.5H5.925C7.24167 4.5 8.425 4.73333 9.475 5.2C10.525 5.65 11.4083 6.26667 12.125 7.05C12.8583 7.81667 13.4167 8.7 13.8 9.7C14.1833 10.7 14.375 11.7417 14.375 12.825C14.375 13.8417 14.1917 14.8417 13.825 15.825C13.4583 16.7917 12.9083 17.6583 12.175 18.425C11.4417 19.1917 10.525 19.8167 9.425 20.3C8.325 20.7667 7.05 21 5.6 21H1.1V20.75ZM12.675 13.2C12.675 12.1333 12.4833 11.125 12.1 10.175C11.7167 9.225 11.175 8.4 10.475 7.7C9.79167 6.98333 8.975 6.41667 8.025 6C7.09167 5.58333 6.075 5.375 4.975 5.375H3.7V20.125H5.025C5.925 20.125 6.825 19.9917 7.725 19.725C8.64167 19.4417 9.46667 19.0167 10.2 18.45C10.9333 17.8667 11.525 17.1417 11.975 16.275C12.4417 15.4083 12.675 14.3833 12.675 13.2ZM32.3303 20.75H32.4553C32.8553 20.75 33.0553 20.5667 33.0553 20.2C33.0553 20.0667 33.0303 19.925 32.9803 19.775L30.7303 13.7H26.3553L24.1803 19.675C24.1303 19.8083 24.1053 19.9333 24.1053 20.05C24.1053 20.2667 24.1636 20.4417 24.2803 20.575C24.3969 20.6917 24.5219 20.75 24.6553 20.75H24.7803V21H22.0053V20.75H22.1303C22.3469 20.75 22.5553 20.625 22.7553 20.375C22.9719 20.1083 23.1469 19.8 23.2803 19.45L29.0053 4.2L34.6053 19.3C34.7219 19.6333 34.8803 19.9583 35.0803 20.275C35.2969 20.5917 35.5719 20.75 35.9053 20.75H36.0303V21H32.3303V20.75ZM26.6053 12.85H30.4553L28.5303 7.625L26.6053 12.85ZM47.1764 20.75H47.3014V21H43.7764V20.75H43.9014C44.018 20.75 44.1264 20.7 44.2264 20.6C44.3264 20.5 44.4097 20.3833 44.4764 20.25C44.5597 20.1167 44.618 19.975 44.6514 19.825C44.6847 19.6583 44.7014 19.5083 44.7014 19.375V6.05C44.7014 5.93333 44.6847 5.8 44.6514 5.65C44.618 5.5 44.5597 5.35833 44.4764 5.225C44.4097 5.09167 44.3264 4.98333 44.2264 4.9C44.1264 4.8 44.018 4.75 43.9014 4.75H43.7764V4.5H48.1264C49.793 4.5 51.0764 4.825 51.9764 5.475C52.893 6.125 53.3514 7.08333 53.3514 8.35C53.3514 8.98333 53.243 9.54167 53.0264 10.025C52.8264 10.4917 52.5514 10.9 52.2014 11.25C51.8514 11.5833 51.4347 11.8583 50.9514 12.075C50.4847 12.275 49.9847 12.425 49.4514 12.525L51.2514 15.275C51.6847 15.9417 52.1264 16.6 52.5764 17.25C53.0264 17.8833 53.468 18.5417 53.9014 19.225C54.018 19.3917 54.143 19.5667 54.2764 19.75C54.4264 19.9333 54.5764 20.1 54.7264 20.25C54.893 20.4 55.0597 20.525 55.2264 20.625C55.4097 20.7083 55.593 20.75 55.7764 20.75V21H54.7014C54.0347 21 53.4847 20.8417 53.0514 20.525C52.6347 20.1917 52.2847 19.8083 52.0014 19.375C51.2514 18.275 50.5014 17.1583 49.7514 16.025C49.018 14.8917 48.2847 13.775 47.5514 12.675C47.368 12.6583 47.168 12.6417 46.9514 12.625C46.7514 12.5917 46.5597 12.5583 46.3764 12.525V19.375C46.3764 19.5083 46.393 19.6583 46.4264 19.825C46.4597 19.975 46.5097 20.1167 46.5764 20.25C46.6597 20.3833 46.743 20.5 46.8264 20.6C46.9264 20.7 47.043 20.75 47.1764 20.75ZM46.3764 5.35V11.7H46.5014C46.6347 11.7167 46.843 11.7333 47.1264 11.75C47.4264 11.75 47.793 11.75 48.2264 11.75C48.5764 11.75 48.943 11.7 49.3264 11.6C49.7264 11.4833 50.093 11.3 50.4264 11.05C50.7764 10.7833 51.0597 10.4417 51.2764 10.025C51.5097 9.60833 51.6264 9.08333 51.6264 8.45C51.6264 7.81667 51.5014 7.3 51.2514 6.9C51.018 6.5 50.6847 6.18333 50.2514 5.95C49.8347 5.71667 49.3264 5.55833 48.7264 5.475C48.1264 5.39167 47.468 5.35 46.7514 5.35H46.3764ZM63.6273 4.5H67.2023V4.75H67.0773C66.9607 4.75 66.8523 4.8 66.7523 4.9C66.6523 4.98333 66.569 5.09167 66.5023 5.225C66.4357 5.34167 66.3773 5.48333 66.3273 5.65C66.294 5.8 66.2773 5.93333 66.2773 6.05V19.375C66.2773 19.5083 66.294 19.6583 66.3273 19.825C66.3607 19.975 66.4107 20.1167 66.4773 20.25C66.5607 20.3833 66.644 20.5 66.7273 20.6C66.8273 20.7 66.944 20.75 67.0773 20.75H67.2023V21H63.6273V20.75H63.7523C63.8857 20.75 64.0023 20.7083 64.1023 20.625C64.2023 20.525 64.2857 20.4083 64.3523 20.275C64.4357 20.125 64.494 19.975 64.5273 19.825C64.5607 19.6583 64.5773 19.5083 64.5773 19.375V6.05C64.5773 5.93333 64.5607 5.8 64.5273 5.65C64.494 5.5 64.4357 5.35833 64.3523 5.225C64.2857 5.09167 64.2023 4.98333 64.1023 4.9C64.0023 4.8 63.8857 4.75 63.7523 4.75H63.6273V4.5ZM85.4064 20.75H85.5314C85.9314 20.75 86.1314 20.5667 86.1314 20.2C86.1314 20.0667 86.1064 19.925 86.0564 19.775L83.8064 13.7H79.4314L77.2564 19.675C77.2064 19.8083 77.1814 19.9333 77.1814 20.05C77.1814 20.2667 77.2398 20.4417 77.3564 20.575C77.4731 20.6917 77.5981 20.75 77.7314 20.75H77.8564V21H75.0814V20.75H75.2064C75.4231 20.75 75.6314 20.625 75.8314 20.375C76.0481 20.1083 76.2231 19.8 76.3564 19.45L82.0814 4.2L87.6814 19.3C87.7981 19.6333 87.9564 19.9583 88.1564 20.275C88.3731 20.5917 88.6481 20.75 88.9814 20.75H89.1064V21H85.4064V20.75ZM79.6814 12.85H83.5314L81.6064 7.625L79.6814 12.85ZM115.922 20.75H116.047V21H112.497V20.75H112.622C112.755 20.75 112.872 20.7 112.972 20.6C113.072 20.5 113.155 20.3833 113.222 20.25C113.305 20.1167 113.363 19.975 113.397 19.825C113.43 19.6583 113.447 19.5083 113.447 19.375V5.425H110.547C110.28 5.425 110.047 5.48333 109.847 5.6C109.647 5.71667 109.48 5.86667 109.347 6.05C109.213 6.21667 109.113 6.40833 109.047 6.625C108.98 6.825 108.947 7.025 108.947 7.225H108.697V4.5H119.922V7.225H119.672C119.672 7.025 119.638 6.825 119.572 6.625C119.505 6.40833 119.405 6.21667 119.272 6.05C119.138 5.86667 118.972 5.71667 118.772 5.6C118.572 5.48333 118.338 5.425 118.072 5.425H115.122V19.375C115.122 19.5083 115.138 19.6583 115.172 19.825C115.205 19.975 115.255 20.1167 115.322 20.25C115.405 20.3833 115.488 20.5 115.572 20.6C115.672 20.7 115.788 20.75 115.922 20.75ZM127.641 4.5H131.216V4.75H131.091C130.974 4.75 130.866 4.8 130.766 4.9C130.666 4.98333 130.583 5.09167 130.516 5.225C130.449 5.34167 130.391 5.48333 130.341 5.65C130.308 5.8 130.291 5.93333 130.291 6.05V19.375C130.291 19.5083 130.308 19.6583 130.341 19.825C130.374 19.975 130.424 20.1167 130.491 20.25C130.574 20.3833 130.658 20.5 130.741 20.6C130.841 20.7 130.958 20.75 131.091 20.75H131.216V21H127.641V20.75H127.766C127.899 20.75 128.016 20.7083 128.116 20.625C128.216 20.525 128.299 20.4083 128.366 20.275C128.449 20.125 128.508 19.975 128.541 19.825C128.574 19.6583 128.591 19.5083 128.591 19.375V6.05C128.591 5.93333 128.574 5.8 128.541 5.65C128.508 5.5 128.449 5.35833 128.366 5.225C128.299 5.09167 128.216 4.98333 128.116 4.9C128.016 4.8 127.899 4.75 127.766 4.75H127.641V4.5ZM146.195 20.75H146.32V21H142.77V20.75H142.895C143.028 20.75 143.145 20.7 143.245 20.6C143.345 20.5 143.428 20.3833 143.495 20.25C143.578 20.1167 143.637 19.975 143.67 19.825C143.703 19.6583 143.72 19.5083 143.72 19.375V5.425H140.82C140.553 5.425 140.32 5.48333 140.12 5.6C139.92 5.71667 139.753 5.86667 139.62 6.05C139.487 6.21667 139.387 6.40833 139.32 6.625C139.253 6.825 139.22 7.025 139.22 7.225H138.97V4.5H150.195V7.225H149.945C149.945 7.025 149.912 6.825 149.845 6.625C149.778 6.40833 149.678 6.21667 149.545 6.05C149.412 5.86667 149.245 5.71667 149.045 5.6C148.845 5.48333 148.612 5.425 148.345 5.425H145.395V19.375C145.395 19.5083 145.412 19.6583 145.445 19.825C145.478 19.975 145.528 20.1167 145.595 20.25C145.678 20.3833 145.762 20.5 145.845 20.6C145.945 20.7 146.062 20.75 146.195 20.75ZM164.994 4.25C166.294 4.25 167.461 4.48333 168.494 4.95C169.528 5.4 170.403 6.01667 171.119 6.8C171.853 7.56667 172.411 8.46667 172.794 9.5C173.194 10.5167 173.394 11.5833 173.394 12.7C173.394 13.95 173.161 15.1 172.694 16.15C172.244 17.2 171.619 18.1 170.819 18.85C170.019 19.6 169.086 20.1917 168.019 20.625C166.969 21.0417 165.844 21.25 164.644 21.25C163.361 21.25 162.203 21.0167 161.169 20.55C160.153 20.0833 159.286 19.4667 158.569 18.7C157.869 17.9333 157.328 17.05 156.944 16.05C156.561 15.05 156.369 14.0083 156.369 12.925C156.369 11.8583 156.561 10.8083 156.944 9.775C157.328 8.725 157.886 7.79167 158.619 6.975C159.369 6.15833 160.278 5.5 161.344 5C162.411 4.5 163.628 4.25 164.994 4.25ZM164.969 20.375C166.086 20.325 167.061 20.075 167.894 19.625C168.744 19.1583 169.453 18.575 170.019 17.875C170.586 17.1583 171.003 16.375 171.269 15.525C171.553 14.675 171.694 13.8333 171.694 13C171.694 12.0833 171.528 11.1583 171.194 10.225C170.861 9.29167 170.386 8.45 169.769 7.7C169.153 6.93333 168.411 6.31667 167.544 5.85C166.694 5.36667 165.736 5.125 164.669 5.125C163.636 5.125 162.711 5.35833 161.894 5.825C161.078 6.275 160.378 6.85833 159.794 7.575C159.228 8.29167 158.794 9.09167 158.494 9.975C158.194 10.8583 158.044 11.725 158.044 12.575C158.044 13.4917 158.219 14.4167 158.569 15.35C158.919 16.2667 159.403 17.1 160.019 17.85C160.636 18.6 161.361 19.2083 162.194 19.675C163.044 20.1417 163.969 20.375 164.969 20.375ZM181.471 5.375C181.471 5.475 181.496 5.6 181.546 5.75L185.946 17.6L190.346 5.625C190.363 5.59167 190.379 5.54167 190.396 5.475C190.413 5.40833 190.421 5.35833 190.421 5.325C190.421 5.125 190.338 4.98333 190.171 4.9C190.021 4.8 189.879 4.75 189.746 4.75V4.5H192.471V4.75C192.221 4.75 191.988 4.81667 191.771 4.95C191.571 5.08333 191.413 5.30833 191.296 5.625L185.571 21.3L179.721 5.7C179.621 5.45 179.471 5.23333 179.271 5.05C179.088 4.86667 178.854 4.76667 178.571 4.75V4.5H182.121V4.75C181.971 4.75 181.821 4.80833 181.671 4.925C181.538 5.025 181.471 5.175 181.471 5.375ZM205.475 20.75H205.6C206 20.75 206.2 20.5667 206.2 20.2C206.2 20.0667 206.175 19.925 206.125 19.775L203.875 13.7H199.5L197.325 19.675C197.275 19.8083 197.25 19.9333 197.25 20.05C197.25 20.2667 197.308 20.4417 197.425 20.575C197.541 20.6917 197.666 20.75 197.8 20.75H197.925V21H195.15V20.75H195.275C195.491 20.75 195.7 20.625 195.9 20.375C196.116 20.1083 196.291 19.8 196.425 19.45L202.15 4.2L207.75 19.3C207.866 19.6333 208.025 19.9583 208.225 20.275C208.441 20.5917 208.716 20.75 209.05 20.75H209.175V21H205.475V20.75ZM199.75 12.85H203.6L201.675 7.625L199.75 12.85Z" fill="#2F3541"/>
<path d="M59.328 47.88H59.388C59.444 47.88 59.496 47.86 59.544 47.82C59.592 47.772 59.632 47.716 59.664 47.652C59.704 47.58 59.732 47.508 59.748 47.436C59.764 47.356 59.772 47.284 59.772 47.22V43.956H55.932V47.22C55.932 47.284 55.94 47.356 55.956 47.436C55.972 47.508 55.996 47.576 56.028 47.64C56.06 47.704 56.096 47.76 56.136 47.808C56.184 47.856 56.24 47.88 56.304 47.88H56.364V48H54.684V47.88H54.744C54.8 47.88 54.852 47.86 54.9 47.82C54.948 47.772 54.988 47.716 55.02 47.652C55.06 47.58 55.088 47.508 55.104 47.436C55.12 47.356 55.128 47.284 55.128 47.22V40.824C55.128 40.768 55.12 40.704 55.104 40.632C55.088 40.56 55.064 40.492 55.032 40.428C55 40.364 54.96 40.312 54.912 40.272C54.864 40.224 54.808 40.2 54.744 40.2H54.684V40.08H56.364V40.2H56.304C56.24 40.2 56.184 40.224 56.136 40.272C56.088 40.312 56.048 40.364 56.016 40.428C55.992 40.492 55.972 40.56 55.956 40.632C55.94 40.704 55.932 40.768 55.932 40.824V43.536H59.772V40.824C59.772 40.768 59.764 40.704 59.748 40.632C59.732 40.56 59.708 40.492 59.676 40.428C59.644 40.364 59.604 40.312 59.556 40.272C59.508 40.224 59.452 40.2 59.388 40.2H59.328V40.08H61.008V40.2H60.948C60.884 40.2 60.828 40.224 60.78 40.272C60.732 40.312 60.692 40.364 60.66 40.428C60.636 40.492 60.616 40.56 60.6 40.632C60.584 40.704 60.576 40.768 60.576 40.824V47.22C60.576 47.284 60.584 47.356 60.6 47.436C60.624 47.508 60.652 47.576 60.684 47.64C60.716 47.704 60.752 47.76 60.792 47.808C60.84 47.856 60.892 47.88 60.948 47.88H61.008V48H59.328V47.88ZM70.0688 47.88H70.1288C70.3208 47.88 70.4168 47.792 70.4168 47.616C70.4168 47.552 70.4048 47.484 70.3808 47.412L69.3008 44.496H67.2008L66.1568 47.364C66.1328 47.428 66.1208 47.488 66.1208 47.544C66.1208 47.648 66.1488 47.732 66.2048 47.796C66.2608 47.852 66.3208 47.88 66.3848 47.88H66.4448V48H65.1128V47.88H65.1728C65.2768 47.88 65.3768 47.82 65.4728 47.7C65.5768 47.572 65.6608 47.424 65.7248 47.256L68.4728 39.936L71.1608 47.184C71.2168 47.344 71.2928 47.5 71.3888 47.652C71.4928 47.804 71.6248 47.88 71.7848 47.88H71.8448V48H70.0688V47.88ZM67.3208 44.088H69.1688L68.2448 41.58L67.3208 44.088ZM76.091 40.08H77.807V40.2H77.747C77.691 40.2 77.639 40.224 77.591 40.272C77.543 40.312 77.503 40.364 77.471 40.428C77.439 40.484 77.411 40.552 77.387 40.632C77.371 40.704 77.363 40.768 77.363 40.824V47.22C77.363 47.284 77.371 47.356 77.387 47.436C77.403 47.508 77.427 47.576 77.459 47.64C77.499 47.704 77.539 47.76 77.579 47.808C77.627 47.856 77.683 47.88 77.747 47.88H77.807V48H76.091V47.88H76.151C76.215 47.88 76.271 47.86 76.319 47.82C76.367 47.772 76.407 47.716 76.439 47.652C76.479 47.58 76.507 47.508 76.523 47.436C76.539 47.356 76.547 47.284 76.547 47.22V40.824C76.547 40.768 76.539 40.704 76.523 40.632C76.507 40.56 76.479 40.492 76.439 40.428C76.407 40.364 76.367 40.312 76.319 40.272C76.271 40.224 76.215 40.2 76.151 40.2H76.091V40.08ZM84.0729 47.88H84.1329V48H82.4409V47.88H82.5009C82.5569 47.88 82.6089 47.856 82.6569 47.808C82.7049 47.76 82.7449 47.704 82.7769 47.64C82.8169 47.576 82.8449 47.508 82.8609 47.436C82.8769 47.356 82.8849 47.284 82.8849 47.22V40.824C82.8849 40.768 82.8769 40.704 82.8609 40.632C82.8449 40.56 82.8169 40.492 82.7769 40.428C82.7449 40.364 82.7049 40.312 82.6569 40.272C82.6089 40.224 82.5569 40.2 82.5009 40.2H82.4409V40.08H84.5289C85.3289 40.08 85.9449 40.236 86.3769 40.548C86.8169 40.86 87.0369 41.32 87.0369 41.928C87.0369 42.232 86.9849 42.5 86.8809 42.732C86.7849 42.956 86.6529 43.152 86.4849 43.32C86.3169 43.48 86.1169 43.612 85.8849 43.716C85.6609 43.812 85.4209 43.884 85.1649 43.932L86.0289 45.252C86.2369 45.572 86.4489 45.888 86.6649 46.2C86.8809 46.504 87.0929 46.82 87.3009 47.148C87.3569 47.228 87.4169 47.312 87.4809 47.4C87.5529 47.488 87.6249 47.568 87.6969 47.64C87.7769 47.712 87.8569 47.772 87.9369 47.82C88.0249 47.86 88.1129 47.88 88.2009 47.88V48H87.6849C87.3649 48 87.1009 47.924 86.8929 47.772C86.6929 47.612 86.5249 47.428 86.3889 47.22C86.0289 46.692 85.6689 46.156 85.3089 45.612C84.9569 45.068 84.6049 44.532 84.2529 44.004C84.1649 43.996 84.0689 43.988 83.9649 43.98C83.8689 43.964 83.7769 43.948 83.6889 43.932V47.22C83.6889 47.284 83.6969 47.356 83.7129 47.436C83.7289 47.508 83.7529 47.576 83.7849 47.64C83.8249 47.704 83.8649 47.76 83.9049 47.808C83.9529 47.856 84.0089 47.88 84.0729 47.88ZM83.6889 40.488V43.536H83.7489C83.8129 43.544 83.9129 43.552 84.0489 43.56C84.1929 43.56 84.3689 43.56 84.5769 43.56C84.7449 43.56 84.9209 43.536 85.1049 43.488C85.2969 43.432 85.4729 43.344 85.6329 43.224C85.8009 43.096 85.9369 42.932 86.0409 42.732C86.1529 42.532 86.2089 42.28 86.2089 41.976C86.2089 41.672 86.1489 41.424 86.0289 41.232C85.9169 41.04 85.7569 40.888 85.5489 40.776C85.3489 40.664 85.1049 40.588 84.8169 40.548C84.5289 40.508 84.2129 40.488 83.8689 40.488H83.6889ZM103.859 45.876C103.859 46.276 103.779 46.62 103.619 46.908C103.459 47.188 103.251 47.416 102.995 47.592C102.747 47.768 102.463 47.896 102.143 47.976C101.831 48.056 101.519 48.096 101.207 48.096C100.887 48.096 100.611 48.064 100.379 48C100.147 47.936 99.9346 47.876 99.7426 47.82C99.6146 47.78 99.4986 47.748 99.3946 47.724C99.2906 47.692 99.1866 47.676 99.0826 47.676V46.308H99.2026C99.2026 46.612 99.2786 46.856 99.4306 47.04C99.5906 47.216 99.7746 47.352 99.9826 47.448C100.191 47.544 100.399 47.608 100.607 47.64C100.815 47.664 100.967 47.676 101.063 47.676C101.407 47.676 101.703 47.628 101.951 47.532C102.199 47.428 102.403 47.296 102.563 47.136C102.723 46.968 102.839 46.784 102.911 46.584C102.991 46.384 103.031 46.18 103.031 45.972C103.031 45.708 102.975 45.488 102.863 45.312C102.751 45.128 102.603 44.968 102.419 44.832C102.243 44.696 102.039 44.58 101.807 44.484C101.575 44.388 101.339 44.292 101.099 44.196C100.827 44.092 100.559 43.984 100.295 43.872C100.031 43.76 99.7946 43.624 99.5866 43.464C99.3786 43.296 99.2106 43.1 99.0826 42.876C98.9546 42.644 98.8906 42.36 98.8906 42.024C98.8906 41.672 98.9586 41.368 99.0946 41.112C99.2306 40.848 99.4106 40.632 99.6346 40.464C99.8666 40.296 100.127 40.172 100.415 40.092C100.711 40.004 101.011 39.96 101.315 39.96C101.523 39.96 101.719 39.976 101.903 40.008C102.087 40.032 102.263 40.064 102.431 40.104C102.567 40.136 102.699 40.164 102.827 40.188C102.955 40.204 103.079 40.212 103.199 40.212V41.448H103.079C103.063 41.032 102.899 40.752 102.587 40.608C102.275 40.456 101.843 40.38 101.291 40.38C100.971 40.38 100.707 40.436 100.499 40.548C100.299 40.652 100.139 40.784 100.019 40.944C99.8986 41.096 99.8146 41.264 99.7666 41.448C99.7266 41.624 99.7066 41.78 99.7066 41.916C99.7066 42.14 99.7546 42.332 99.8506 42.492C99.9546 42.652 100.091 42.792 100.259 42.912C100.427 43.032 100.619 43.14 100.835 43.236C101.059 43.332 101.291 43.424 101.531 43.512C101.803 43.616 102.079 43.728 102.359 43.848C102.639 43.968 102.887 44.116 103.103 44.292C103.327 44.468 103.507 44.684 103.643 44.94C103.787 45.196 103.859 45.508 103.859 45.876ZM110.952 47.88H111.012V48H109.308V47.88H109.368C109.432 47.88 109.488 47.856 109.536 47.808C109.584 47.76 109.624 47.704 109.656 47.64C109.696 47.576 109.724 47.508 109.74 47.436C109.756 47.356 109.764 47.284 109.764 47.22V40.524H108.372C108.244 40.524 108.132 40.552 108.036 40.608C107.94 40.664 107.86 40.736 107.796 40.824C107.732 40.904 107.684 40.996 107.652 41.1C107.62 41.196 107.604 41.292 107.604 41.388H107.484V40.08H112.872V41.388H112.752C112.752 41.292 112.736 41.196 112.704 41.1C112.672 40.996 112.624 40.904 112.56 40.824C112.496 40.736 112.416 40.664 112.32 40.608C112.224 40.552 112.112 40.524 111.984 40.524H110.568V47.22C110.568 47.284 110.576 47.356 110.592 47.436C110.608 47.508 110.632 47.576 110.664 47.64C110.704 47.704 110.744 47.76 110.784 47.808C110.832 47.856 110.888 47.88 110.952 47.88ZM116.505 40.08H118.161V40.2C118.105 40.208 118.053 40.232 118.005 40.272C117.957 40.312 117.933 40.372 117.933 40.452C117.933 40.492 117.945 40.536 117.969 40.584L119.769 43.74L121.497 40.752C121.529 40.688 121.549 40.64 121.557 40.608C121.573 40.576 121.581 40.536 121.581 40.488C121.565 40.36 121.517 40.28 121.437 40.248C121.365 40.216 121.321 40.2 121.305 40.2V40.08H122.589V40.2C122.469 40.2 122.345 40.276 122.217 40.428C122.097 40.572 121.993 40.72 121.905 40.872L120.033 44.112V47.22C120.033 47.284 120.041 47.352 120.057 47.424C120.081 47.496 120.109 47.568 120.141 47.64C120.173 47.704 120.213 47.76 120.261 47.808C120.309 47.856 120.365 47.88 120.429 47.88H120.489V48H118.773V47.88H118.833C118.897 47.88 118.953 47.86 119.001 47.82C119.049 47.772 119.089 47.716 119.121 47.652C119.161 47.58 119.189 47.508 119.205 47.436C119.221 47.356 119.229 47.284 119.229 47.22V44.22L117.297 40.908C117.257 40.844 117.209 40.772 117.153 40.692C117.097 40.612 117.037 40.536 116.973 40.464C116.909 40.392 116.841 40.332 116.769 40.284C116.697 40.228 116.629 40.2 116.565 40.2H116.505V40.08ZM126.841 47.88H126.901C126.965 47.88 127.021 47.86 127.069 47.82C127.117 47.772 127.157 47.716 127.189 47.652C127.229 47.588 127.257 47.52 127.273 47.448C127.297 47.376 127.309 47.308 127.309 47.244V40.824C127.309 40.768 127.297 40.704 127.273 40.632C127.257 40.56 127.229 40.492 127.189 40.428C127.157 40.364 127.117 40.312 127.069 40.272C127.021 40.224 126.965 40.2 126.901 40.2H126.841V40.08H128.569V40.2H128.509C128.445 40.2 128.389 40.224 128.341 40.272C128.293 40.312 128.253 40.364 128.221 40.428C128.189 40.492 128.161 40.56 128.137 40.632C128.121 40.704 128.113 40.768 128.113 40.824V47.556H130.741C130.893 47.556 131.025 47.52 131.137 47.448C131.249 47.376 131.341 47.288 131.413 47.184C131.493 47.072 131.549 46.956 131.581 46.836C131.621 46.708 131.641 46.592 131.641 46.488H131.761V48H126.841V47.88ZM135.947 40.08H137.663V40.2H137.603C137.547 40.2 137.495 40.224 137.447 40.272C137.399 40.312 137.359 40.364 137.327 40.428C137.295 40.484 137.267 40.552 137.243 40.632C137.227 40.704 137.219 40.768 137.219 40.824V47.22C137.219 47.284 137.227 47.356 137.243 47.436C137.259 47.508 137.283 47.576 137.315 47.64C137.355 47.704 137.395 47.76 137.435 47.808C137.483 47.856 137.539 47.88 137.603 47.88H137.663V48H135.947V47.88H136.007C136.071 47.88 136.127 47.86 136.175 47.82C136.223 47.772 136.263 47.716 136.295 47.652C136.335 47.58 136.363 47.508 136.379 47.436C136.395 47.356 136.403 47.284 136.403 47.22V40.824C136.403 40.768 136.395 40.704 136.379 40.632C136.363 40.56 136.335 40.492 136.295 40.428C136.263 40.364 136.223 40.312 136.175 40.272C136.127 40.224 136.071 40.2 136.007 40.2H135.947V40.08ZM147.157 45.876C147.157 46.276 147.077 46.62 146.917 46.908C146.757 47.188 146.549 47.416 146.293 47.592C146.045 47.768 145.761 47.896 145.441 47.976C145.129 48.056 144.817 48.096 144.505 48.096C144.185 48.096 143.909 48.064 143.677 48C143.445 47.936 143.233 47.876 143.041 47.82C142.913 47.78 142.797 47.748 142.693 47.724C142.589 47.692 142.485 47.676 142.381 47.676V46.308H142.501C142.501 46.612 142.577 46.856 142.729 47.04C142.889 47.216 143.073 47.352 143.281 47.448C143.489 47.544 143.697 47.608 143.905 47.64C144.113 47.664 144.265 47.676 144.361 47.676C144.705 47.676 145.001 47.628 145.249 47.532C145.497 47.428 145.701 47.296 145.861 47.136C146.021 46.968 146.137 46.784 146.209 46.584C146.289 46.384 146.329 46.18 146.329 45.972C146.329 45.708 146.273 45.488 146.161 45.312C146.049 45.128 145.901 44.968 145.717 44.832C145.541 44.696 145.337 44.58 145.105 44.484C144.873 44.388 144.637 44.292 144.397 44.196C144.125 44.092 143.857 43.984 143.593 43.872C143.329 43.76 143.093 43.624 142.885 43.464C142.677 43.296 142.509 43.1 142.381 42.876C142.253 42.644 142.189 42.36 142.189 42.024C142.189 41.672 142.257 41.368 142.393 41.112C142.529 40.848 142.709 40.632 142.933 40.464C143.165 40.296 143.425 40.172 143.713 40.092C144.009 40.004 144.309 39.96 144.613 39.96C144.821 39.96 145.017 39.976 145.201 40.008C145.385 40.032 145.561 40.064 145.729 40.104C145.865 40.136 145.997 40.164 146.125 40.188C146.253 40.204 146.377 40.212 146.497 40.212V41.448H146.377C146.361 41.032 146.197 40.752 145.885 40.608C145.573 40.456 145.141 40.38 144.589 40.38C144.269 40.38 144.005 40.436 143.797 40.548C143.597 40.652 143.437 40.784 143.317 40.944C143.197 41.096 143.113 41.264 143.065 41.448C143.025 41.624 143.005 41.78 143.005 41.916C143.005 42.14 143.053 42.332 143.149 42.492C143.253 42.652 143.389 42.792 143.557 42.912C143.725 43.032 143.917 43.14 144.133 43.236C144.357 43.332 144.589 43.424 144.829 43.512C145.101 43.616 145.377 43.728 145.657 43.848C145.937 43.968 146.185 44.116 146.401 44.292C146.625 44.468 146.805 44.684 146.941 44.94C147.085 45.196 147.157 45.508 147.157 45.876ZM154.251 47.88H154.311V48H152.607V47.88H152.667C152.731 47.88 152.787 47.856 152.835 47.808C152.883 47.76 152.923 47.704 152.955 47.64C152.995 47.576 153.023 47.508 153.039 47.436C153.055 47.356 153.063 47.284 153.063 47.22V40.524H151.671C151.543 40.524 151.431 40.552 151.335 40.608C151.239 40.664 151.159 40.736 151.095 40.824C151.031 40.904 150.983 40.996 150.951 41.1C150.919 41.196 150.903 41.292 150.903 41.388H150.783V40.08H156.171V41.388H156.051C156.051 41.292 156.035 41.196 156.003 41.1C155.971 40.996 155.923 40.904 155.859 40.824C155.795 40.736 155.715 40.664 155.619 40.608C155.523 40.552 155.411 40.524 155.283 40.524H153.867V47.22C153.867 47.284 153.875 47.356 153.891 47.436C153.907 47.508 153.931 47.576 153.963 47.64C154.003 47.704 154.043 47.76 154.083 47.808C154.131 47.856 154.187 47.88 154.251 47.88Z" fill="#2F3541"/>
</svg>
