<svg width="209" height="45" viewBox="0 0 209 45" fill="none" xmlns="http://www.w3.org/2000/svg">
<path fill-rule="evenodd" clip-rule="evenodd" d="M31.3304 16.75H31.4554C31.8554 16.75 32.0554 16.5667 32.0554 16.2C32.0554 16.0667 32.0304 15.925 31.9804 15.775L29.7304 9.7H25.3554L23.1804 15.675C23.1304 15.8083 23.1054 15.9333 23.1054 16.05C23.1054 16.2667 23.1637 16.4417 23.2804 16.575C23.397 16.6917 23.522 16.75 23.6554 16.75H23.7804V17H21.0054V16.75H21.1304C21.347 16.75 21.5554 16.625 21.7554 16.375C21.972 16.1083 22.147 15.8 22.2804 15.45L28.0054 0.199997L33.6054 15.3C33.722 15.6333 33.8804 15.9583 34.0804 16.275C34.297 16.5917 34.572 16.75 34.9054 16.75H35.0304V17H31.3304V16.75ZM25.6054 8.85H29.4554L27.5304 3.625L25.6054 8.85ZM0.100098 16.75H0.225098C0.341764 16.75 0.450098 16.7 0.550098 16.6C0.650098 16.5 0.733431 16.3833 0.800098 16.25C0.883431 16.1167 0.941764 15.975 0.975098 15.825C1.00843 15.6583 1.0251 15.5083 1.0251 15.375V2.05C1.0251 1.93333 1.00843 1.8 0.975098 1.65C0.941764 1.5 0.891764 1.35833 0.825098 1.225C0.758431 1.09166 0.675098 0.98333 0.575098 0.899997C0.475098 0.799997 0.358431 0.749997 0.225098 0.749997H0.100098V0.499998H4.9251C6.24177 0.499998 7.4251 0.733331 8.4751 1.2C9.5251 1.65 10.4084 2.26666 11.1251 3.05C11.8584 3.81666 12.4168 4.7 12.8001 5.7C13.1834 6.7 13.3751 7.74166 13.3751 8.825C13.3751 9.84167 13.1918 10.8417 12.8251 11.825C12.4584 12.7917 11.9084 13.6583 11.1751 14.425C10.4418 15.1917 9.5251 15.8167 8.4251 16.3C7.3251 16.7667 6.0501 17 4.6001 17H0.100098V16.75ZM11.6751 9.2C11.6751 8.13333 11.4834 7.125 11.1001 6.175C10.7168 5.225 10.1751 4.4 9.4751 3.7C8.79176 2.98333 7.9751 2.41666 7.0251 2C6.09176 1.58333 5.0751 1.375 3.9751 1.375H2.7001V16.125H4.0251C4.9251 16.125 5.8251 15.9917 6.7251 15.725C7.64176 15.4417 8.46676 15.0167 9.2001 14.45C9.93343 13.8667 10.5251 13.1417 10.9751 12.275C11.4418 11.4083 11.6751 10.3833 11.6751 9.2ZM46.3015 16.75H46.1765C46.0431 16.75 45.9265 16.7 45.8265 16.6C45.7431 16.5 45.6598 16.3833 45.5765 16.25C45.5098 16.1167 45.4598 15.975 45.4265 15.825C45.3931 15.6583 45.3765 15.5083 45.3765 15.375V8.525C45.5598 8.55833 45.7515 8.59166 45.9515 8.625C46.1681 8.64166 46.3681 8.65833 46.5515 8.675C47.2848 9.775 48.0181 10.8917 48.7515 12.025C49.5015 13.1583 50.2515 14.275 51.0015 15.375C51.2848 15.8083 51.6348 16.1917 52.0515 16.525C52.4848 16.8417 53.0348 17 53.7015 17H54.7765V16.75C54.5931 16.75 54.4098 16.7083 54.2265 16.625C54.0598 16.525 53.8931 16.4 53.7265 16.25C53.5765 16.1 53.4265 15.9333 53.2765 15.75C53.1431 15.5667 53.0181 15.3917 52.9015 15.225C52.4681 14.5417 52.0265 13.8833 51.5765 13.25C51.1265 12.6 50.6848 11.9417 50.2515 11.275L48.4515 8.525C48.9848 8.425 49.4848 8.275 49.9515 8.075C50.4348 7.85833 50.8515 7.58333 51.2015 7.25C51.5515 6.9 51.8265 6.49166 52.0265 6.025C52.2431 5.54166 52.3515 4.98333 52.3515 4.35C52.3515 3.08333 51.8931 2.125 50.9765 1.475C50.0765 0.824997 48.7931 0.499998 47.1265 0.499998H42.7765V0.749997H42.9015C43.0181 0.749997 43.1265 0.799997 43.2265 0.899997C43.3265 0.98333 43.4098 1.09166 43.4765 1.225C43.5598 1.35833 43.6181 1.5 43.6515 1.65C43.6848 1.8 43.7015 1.93333 43.7015 2.05V15.375C43.7015 15.5083 43.6848 15.6583 43.6515 15.825C43.6181 15.975 43.5598 16.1167 43.4765 16.25C43.4098 16.3833 43.3265 16.5 43.2265 16.6C43.1265 16.7 43.0181 16.75 42.9015 16.75H42.7765V17H46.3015V16.75ZM45.3765 7.7V1.35H45.7515C46.4681 1.35 47.1265 1.39166 47.7265 1.475C48.3265 1.55833 48.8348 1.71666 49.2515 1.95C49.6848 2.18333 50.0181 2.5 50.2515 2.9C50.5015 3.3 50.6265 3.81666 50.6265 4.45C50.6265 5.08333 50.5098 5.60833 50.2765 6.025C50.0598 6.44166 49.7765 6.78333 49.4265 7.05C49.0931 7.3 48.7265 7.48333 48.3265 7.6C47.9431 7.7 47.5765 7.75 47.2265 7.75H46.1265C45.8431 7.73333 45.6348 7.71666 45.5015 7.7H45.3765ZM62.6274 0.499998H66.2024V0.749997H66.0774C65.9608 0.749997 65.8524 0.799997 65.7524 0.899997C65.6524 0.98333 65.5691 1.09166 65.5024 1.225C65.4358 1.34166 65.3774 1.48333 65.3274 1.65C65.2941 1.8 65.2774 1.93333 65.2774 2.05V15.375C65.2774 15.5083 65.2941 15.6583 65.3274 15.825C65.3608 15.975 65.4108 16.1167 65.4774 16.25C65.5608 16.3833 65.6441 16.5 65.7274 16.6C65.8274 16.7 65.9441 16.75 66.0774 16.75H66.2024V17H62.6274V16.75H62.7524C62.8858 16.75 63.0024 16.7083 63.1024 16.625C63.2024 16.525 63.2858 16.4083 63.3524 16.275C63.4358 16.125 63.4941 15.975 63.5274 15.825C63.5608 15.6583 63.5774 15.5083 63.5774 15.375V2.05C63.5774 1.93333 63.5608 1.8 63.5274 1.65C63.4941 1.5 63.4358 1.35833 63.3524 1.225C63.2858 1.09166 63.2024 0.98333 63.1024 0.899997C63.0024 0.799997 62.8858 0.749997 62.7524 0.749997H62.6274V0.499998ZM84.5315 16.75H84.4065V17H88.1065V16.75H87.9815C87.6482 16.75 87.3732 16.5917 87.1565 16.275C86.9566 15.9583 86.7982 15.6333 86.6815 15.3L81.0815 0.199997L75.3565 15.45C75.2232 15.8 75.0482 16.1083 74.8315 16.375C74.6315 16.625 74.4232 16.75 74.2065 16.75H74.0815V17H76.8565V16.75H76.7315C76.5982 16.75 76.4732 16.6917 76.3565 16.575C76.2399 16.4417 76.1815 16.2667 76.1815 16.05C76.1815 15.9333 76.2065 15.8083 76.2565 15.675L78.4315 9.7H82.8065L85.0565 15.775C85.1065 15.925 85.1315 16.0667 85.1315 16.2C85.1315 16.5667 84.9315 16.75 84.5315 16.75ZM80.6065 3.625L82.5315 8.85H78.6815L80.6065 3.625ZM114.922 16.75H115.047V17H111.497V16.75H111.622C111.755 16.75 111.872 16.7 111.972 16.6C112.072 16.5 112.155 16.3833 112.222 16.25C112.305 16.1167 112.363 15.975 112.397 15.825C112.43 15.6583 112.447 15.5083 112.447 15.375V1.425H109.547C109.28 1.425 109.047 1.48333 108.847 1.6C108.647 1.71666 108.48 1.86666 108.347 2.05C108.213 2.21666 108.113 2.40833 108.047 2.625C107.98 2.825 107.947 3.025 107.947 3.225H107.697V0.499998H118.922V3.225H118.672C118.672 3.025 118.638 2.825 118.572 2.625C118.505 2.40833 118.405 2.21666 118.272 2.05C118.138 1.86666 117.972 1.71666 117.772 1.6C117.572 1.48333 117.338 1.425 117.072 1.425H114.122V15.375C114.122 15.5083 114.138 15.6583 114.172 15.825C114.205 15.975 114.255 16.1167 114.322 16.25C114.405 16.3833 114.488 16.5 114.572 16.6C114.672 16.7 114.788 16.75 114.922 16.75ZM130.216 0.499998H126.641V0.749997H126.766C126.899 0.749997 127.016 0.799997 127.116 0.899997C127.216 0.98333 127.299 1.09166 127.366 1.225C127.449 1.35833 127.508 1.5 127.541 1.65C127.574 1.8 127.591 1.93333 127.591 2.05V15.375C127.591 15.5083 127.574 15.6583 127.541 15.825C127.508 15.975 127.449 16.125 127.366 16.275C127.299 16.4083 127.216 16.525 127.116 16.625C127.016 16.7083 126.899 16.75 126.766 16.75H126.641V17H130.216V16.75H130.091C129.958 16.75 129.841 16.7 129.741 16.6C129.658 16.5 129.574 16.3833 129.491 16.25C129.424 16.1167 129.374 15.975 129.341 15.825C129.308 15.6583 129.291 15.5083 129.291 15.375V2.05C129.291 1.93333 129.308 1.8 129.341 1.65C129.391 1.48333 129.449 1.34166 129.516 1.225C129.583 1.09166 129.666 0.98333 129.766 0.899997C129.866 0.799997 129.974 0.749997 130.091 0.749997H130.216V0.499998ZM145.195 16.75H145.32V17H141.77V16.75H141.895C142.029 16.75 142.145 16.7 142.245 16.6C142.345 16.5 142.429 16.3833 142.495 16.25C142.579 16.1167 142.637 15.975 142.67 15.825C142.704 15.6583 142.72 15.5083 142.72 15.375V1.425H139.82C139.554 1.425 139.32 1.48333 139.12 1.6C138.92 1.71666 138.754 1.86666 138.62 2.05C138.487 2.21666 138.387 2.40833 138.32 2.625C138.254 2.825 138.22 3.025 138.22 3.225H137.97V0.499998H149.195V3.225H148.945C148.945 3.025 148.912 2.825 148.845 2.625C148.779 2.40833 148.679 2.21666 148.545 2.05C148.412 1.86666 148.245 1.71666 148.045 1.6C147.845 1.48333 147.612 1.425 147.345 1.425H144.395V15.375C144.395 15.5083 144.412 15.6583 144.445 15.825C144.479 15.975 144.529 16.1167 144.595 16.25C144.679 16.3833 144.762 16.5 144.845 16.6C144.945 16.7 145.062 16.75 145.195 16.75ZM167.494 0.949997C166.461 0.483331 165.294 0.249998 163.994 0.249998C162.628 0.249998 161.411 0.499998 160.344 0.999997C159.278 1.5 158.369 2.15833 157.619 2.975C156.886 3.79166 156.328 4.725 155.944 5.775C155.561 6.80833 155.369 7.85833 155.369 8.925C155.369 10.0083 155.561 11.05 155.944 12.05C156.328 13.05 156.869 13.9333 157.569 14.7C158.286 15.4667 159.153 16.0833 160.169 16.55C161.203 17.0167 162.361 17.25 163.644 17.25C164.844 17.25 165.969 17.0417 167.019 16.625C168.086 16.1917 169.019 15.6 169.819 14.85C170.619 14.1 171.244 13.2 171.694 12.15C172.161 11.1 172.394 9.95 172.394 8.7C172.394 7.58333 172.194 6.51666 171.794 5.5C171.411 4.46666 170.853 3.56666 170.119 2.8C169.403 2.01666 168.528 1.4 167.494 0.949997ZM166.894 15.625C166.061 16.075 165.086 16.325 163.969 16.375C162.969 16.375 162.044 16.1417 161.194 15.675C160.361 15.2083 159.636 14.6 159.019 13.85C158.403 13.1 157.919 12.2667 157.569 11.35C157.219 10.4167 157.044 9.49166 157.044 8.575C157.044 7.725 157.194 6.85833 157.494 5.975C157.794 5.09166 158.228 4.29166 158.794 3.575C159.378 2.85833 160.078 2.275 160.894 1.825C161.711 1.35833 162.636 1.125 163.669 1.125C164.736 1.125 165.694 1.36666 166.544 1.85C167.411 2.31666 168.153 2.93333 168.769 3.7C169.386 4.45 169.861 5.29166 170.194 6.225C170.528 7.15833 170.694 8.08333 170.694 9C170.694 9.83333 170.553 10.675 170.269 11.525C170.003 12.375 169.586 13.1583 169.019 13.875C168.453 14.575 167.744 15.1583 166.894 15.625ZM180.471 1.375C180.471 1.475 180.496 1.6 180.546 1.75L184.946 13.6L189.346 1.625C189.363 1.59166 189.379 1.54166 189.396 1.475C189.413 1.40833 189.421 1.35833 189.421 1.325C189.421 1.125 189.338 0.98333 189.171 0.899997C189.021 0.799997 188.879 0.749997 188.746 0.749997V0.499998H191.471V0.749997C191.221 0.749997 190.988 0.816664 190.771 0.949997C190.571 1.08333 190.413 1.30833 190.296 1.625L184.571 17.3L178.721 1.7C178.621 1.45 178.471 1.23333 178.271 1.05C178.088 0.866664 177.854 0.766664 177.571 0.749997V0.499998H181.121V0.749997C180.971 0.749997 180.821 0.808331 180.671 0.924998C180.538 1.025 180.471 1.175 180.471 1.375ZM204.6 16.75H204.475V17H208.175V16.75H208.05C207.717 16.75 207.442 16.5917 207.225 16.275C207.025 15.9583 206.867 15.6333 206.75 15.3L201.15 0.199997L195.425 15.45C195.292 15.8 195.117 16.1083 194.9 16.375C194.7 16.625 194.492 16.75 194.275 16.75H194.15V17H196.925V16.75H196.8C196.667 16.75 196.542 16.6917 196.425 16.575C196.308 16.4417 196.25 16.2667 196.25 16.05C196.25 15.9333 196.275 15.8083 196.325 15.675L198.5 9.7H202.875L205.125 15.775C205.175 15.925 205.2 16.0667 205.2 16.2C205.2 16.5667 205 16.75 204.6 16.75ZM200.675 3.625L202.6 8.85H198.75L200.675 3.625ZM69.0689 43.88H69.1289C69.3209 43.88 69.4169 43.792 69.4169 43.616C69.4169 43.552 69.4049 43.484 69.3809 43.412L68.3009 40.496H66.2009L65.1569 43.364C65.1329 43.428 65.1209 43.488 65.1209 43.544C65.1209 43.648 65.1489 43.732 65.2049 43.796C65.2609 43.852 65.3209 43.88 65.3849 43.88H65.4449V44H64.1129V43.88H64.1729C64.2769 43.88 64.3769 43.82 64.4729 43.7C64.5769 43.572 64.6609 43.424 64.7249 43.256L67.4729 35.936L70.1609 43.184C70.2169 43.344 70.2929 43.5 70.3889 43.652C70.4929 43.804 70.6249 43.88 70.7849 43.88H70.8449V44H69.0689V43.88ZM66.3209 40.088H68.1689L67.2449 37.58L66.3209 40.088ZM58.3281 43.88H58.3881C58.4441 43.88 58.4961 43.86 58.5441 43.82C58.5921 43.772 58.6321 43.716 58.6641 43.652C58.7041 43.58 58.7321 43.508 58.7481 43.436C58.7641 43.356 58.7721 43.284 58.7721 43.22V39.956H54.9321V43.22C54.9321 43.284 54.9401 43.356 54.9561 43.436C54.9721 43.508 54.9961 43.576 55.0281 43.64C55.0601 43.704 55.0961 43.76 55.1361 43.808C55.1841 43.856 55.2401 43.88 55.3041 43.88H55.3641V44H53.6841V43.88H53.7441C53.8001 43.88 53.8521 43.86 53.9001 43.82C53.9481 43.772 53.9881 43.716 54.0201 43.652C54.0601 43.58 54.0881 43.508 54.1041 43.436C54.1201 43.356 54.1281 43.284 54.1281 43.22V36.824C54.1281 36.768 54.1201 36.704 54.1041 36.632C54.0881 36.56 54.0641 36.492 54.0321 36.428C54.0001 36.364 53.9601 36.312 53.9121 36.272C53.8641 36.224 53.8081 36.2 53.7441 36.2H53.6841V36.08H55.3641V36.2H55.3041C55.2401 36.2 55.1841 36.224 55.1361 36.272C55.0881 36.312 55.0481 36.364 55.0161 36.428C54.9921 36.492 54.9721 36.56 54.9561 36.632C54.9401 36.704 54.9321 36.768 54.9321 36.824V39.536H58.7721V36.824C58.7721 36.768 58.7641 36.704 58.7481 36.632C58.7321 36.56 58.7081 36.492 58.6761 36.428C58.6441 36.364 58.6041 36.312 58.5561 36.272C58.5081 36.224 58.4521 36.2 58.3881 36.2H58.3281V36.08H60.0081V36.2H59.9481C59.8841 36.2 59.8281 36.224 59.7801 36.272C59.7321 36.312 59.6921 36.364 59.6601 36.428C59.6361 36.492 59.6161 36.56 59.6001 36.632C59.5841 36.704 59.5761 36.768 59.5761 36.824V43.22C59.5761 43.284 59.5841 43.356 59.6001 43.436C59.6241 43.508 59.6521 43.576 59.6841 43.64C59.7161 43.704 59.7521 43.76 59.7921 43.808C59.8401 43.856 59.8921 43.88 59.9481 43.88H60.0081V44H58.3281V43.88ZM76.8071 36.08H75.091V36.2H75.151C75.215 36.2 75.271 36.224 75.319 36.272C75.3671 36.312 75.4071 36.364 75.439 36.428C75.479 36.492 75.507 36.56 75.523 36.632C75.539 36.704 75.5471 36.768 75.5471 36.824V43.22C75.5471 43.284 75.539 43.356 75.523 43.436C75.507 43.508 75.479 43.58 75.439 43.652C75.4071 43.716 75.3671 43.772 75.319 43.82C75.271 43.86 75.215 43.88 75.151 43.88H75.091V44H76.8071V43.88H76.747C76.6831 43.88 76.6271 43.856 76.579 43.808C76.539 43.76 76.499 43.704 76.459 43.64C76.427 43.576 76.4031 43.508 76.3871 43.436C76.371 43.356 76.3631 43.284 76.3631 43.22V36.824C76.3631 36.768 76.371 36.704 76.3871 36.632C76.411 36.552 76.439 36.484 76.4711 36.428C76.5031 36.364 76.5431 36.312 76.591 36.272C76.639 36.224 76.691 36.2 76.747 36.2H76.8071V36.08ZM83.073 43.88H83.133V44H81.441V43.88H81.501C81.557 43.88 81.609 43.856 81.657 43.808C81.705 43.76 81.745 43.704 81.777 43.64C81.817 43.576 81.845 43.508 81.861 43.436C81.877 43.356 81.885 43.284 81.885 43.22V36.824C81.885 36.768 81.877 36.704 81.861 36.632C81.845 36.56 81.817 36.492 81.777 36.428C81.745 36.364 81.705 36.312 81.657 36.272C81.609 36.224 81.557 36.2 81.501 36.2H81.441V36.08H83.529C84.329 36.08 84.945 36.236 85.377 36.548C85.817 36.86 86.037 37.32 86.037 37.928C86.037 38.232 85.985 38.5 85.881 38.732C85.785 38.956 85.653 39.152 85.485 39.32C85.317 39.48 85.117 39.612 84.885 39.716C84.661 39.812 84.421 39.884 84.165 39.932L85.029 41.252C85.237 41.572 85.449 41.888 85.665 42.2C85.881 42.504 86.093 42.82 86.301 43.148C86.357 43.228 86.417 43.312 86.481 43.4C86.553 43.488 86.625 43.568 86.697 43.64C86.777 43.712 86.857 43.772 86.937 43.82C87.025 43.86 87.113 43.88 87.201 43.88V44H86.685C86.365 44 86.101 43.924 85.893 43.772C85.693 43.612 85.525 43.428 85.389 43.22C85.029 42.692 84.669 42.156 84.309 41.612C83.957 41.068 83.605 40.532 83.253 40.004C83.165 39.996 83.069 39.988 82.965 39.98C82.869 39.964 82.777 39.948 82.689 39.932V43.22C82.689 43.284 82.697 43.356 82.713 43.436C82.729 43.508 82.753 43.576 82.785 43.64C82.825 43.704 82.865 43.76 82.905 43.808C82.953 43.856 83.009 43.88 83.073 43.88ZM82.689 36.488V39.536H82.749C82.813 39.544 82.913 39.552 83.049 39.56H83.577C83.745 39.56 83.921 39.536 84.105 39.488C84.297 39.432 84.473 39.344 84.633 39.224C84.801 39.096 84.937 38.932 85.041 38.732C85.153 38.532 85.209 38.28 85.209 37.976C85.209 37.672 85.149 37.424 85.029 37.232C84.917 37.04 84.757 36.888 84.549 36.776C84.349 36.664 84.105 36.588 83.817 36.548C83.529 36.508 83.213 36.488 82.869 36.488H82.689ZM102.619 42.908C102.779 42.62 102.859 42.276 102.859 41.876C102.859 41.508 102.787 41.196 102.643 40.94C102.507 40.684 102.327 40.468 102.103 40.292C101.887 40.116 101.639 39.968 101.359 39.848C101.079 39.728 100.803 39.616 100.531 39.512C100.291 39.424 100.059 39.332 99.8347 39.236C99.6187 39.14 99.4267 39.032 99.2587 38.912C99.0907 38.792 98.9547 38.652 98.8507 38.492C98.7547 38.332 98.7067 38.14 98.7067 37.916C98.7067 37.78 98.7267 37.624 98.7667 37.448C98.8147 37.264 98.8987 37.096 99.0187 36.944C99.1387 36.784 99.2987 36.652 99.4987 36.548C99.7067 36.436 99.9707 36.38 100.291 36.38C100.843 36.38 101.275 36.456 101.587 36.608C101.899 36.752 102.063 37.032 102.079 37.448H102.199V36.212C102.079 36.212 101.955 36.204 101.827 36.188C101.699 36.164 101.567 36.136 101.431 36.104C101.263 36.064 101.087 36.032 100.903 36.008C100.719 35.976 100.523 35.96 100.315 35.96C100.011 35.96 99.7107 36.004 99.4147 36.092C99.1267 36.172 98.8667 36.296 98.6347 36.464C98.4107 36.632 98.2307 36.848 98.0947 37.112C97.9587 37.368 97.8907 37.672 97.8907 38.024C97.8907 38.36 97.9547 38.644 98.0827 38.876C98.2107 39.1 98.3787 39.296 98.5867 39.464C98.7947 39.624 99.0307 39.76 99.2947 39.872C99.5587 39.984 99.8267 40.092 100.099 40.196C100.339 40.292 100.575 40.388 100.807 40.484C101.039 40.58 101.243 40.696 101.419 40.832C101.603 40.968 101.751 41.128 101.863 41.312C101.975 41.488 102.031 41.708 102.031 41.972C102.031 42.18 101.991 42.384 101.911 42.584C101.839 42.784 101.723 42.968 101.563 43.136C101.403 43.296 101.199 43.428 100.951 43.532C100.703 43.628 100.407 43.676 100.063 43.676C99.9667 43.676 99.8147 43.664 99.6067 43.64C99.3987 43.608 99.1907 43.544 98.9827 43.448C98.7747 43.352 98.5907 43.216 98.4307 43.04C98.2787 42.856 98.2027 42.612 98.2027 42.308H98.0827V43.676C98.1867 43.676 98.2907 43.692 98.3947 43.724C98.4987 43.748 98.6147 43.78 98.7427 43.82C98.9347 43.876 99.1467 43.936 99.3787 44C99.6107 44.064 99.8867 44.096 100.207 44.096C100.519 44.096 100.831 44.056 101.143 43.976C101.463 43.896 101.747 43.768 101.995 43.592C102.251 43.416 102.459 43.188 102.619 42.908ZM109.952 43.88H110.012V44H108.308V43.88H108.368C108.432 43.88 108.488 43.856 108.536 43.808C108.584 43.76 108.624 43.704 108.656 43.64C108.696 43.576 108.724 43.508 108.74 43.436C108.756 43.356 108.764 43.284 108.764 43.22V36.524H107.372C107.244 36.524 107.132 36.552 107.036 36.608C106.94 36.664 106.86 36.736 106.796 36.824C106.732 36.904 106.684 36.996 106.652 37.1C106.62 37.196 106.604 37.292 106.604 37.388H106.484V36.08H111.872V37.388H111.752C111.752 37.292 111.736 37.196 111.704 37.1C111.672 36.996 111.624 36.904 111.56 36.824C111.496 36.736 111.416 36.664 111.32 36.608C111.224 36.552 111.112 36.524 110.984 36.524H109.568V43.22C109.568 43.284 109.576 43.356 109.592 43.436C109.608 43.508 109.632 43.576 109.664 43.64C109.704 43.704 109.744 43.76 109.784 43.808C109.832 43.856 109.888 43.88 109.952 43.88ZM117.161 36.08H115.505V36.2H115.565C115.629 36.2 115.697 36.228 115.769 36.284C115.841 36.332 115.909 36.392 115.973 36.464C116.037 36.536 116.097 36.612 116.153 36.692C116.209 36.772 116.257 36.844 116.297 36.908L118.229 40.22V43.22C118.229 43.284 118.221 43.356 118.205 43.436C118.189 43.508 118.161 43.58 118.121 43.652C118.089 43.716 118.049 43.772 118.001 43.82C117.953 43.86 117.897 43.88 117.833 43.88H117.773V44H119.489V43.88H119.429C119.365 43.88 119.309 43.856 119.261 43.808C119.213 43.76 119.173 43.704 119.141 43.64C119.109 43.568 119.081 43.496 119.057 43.424C119.041 43.352 119.033 43.284 119.033 43.22V40.112L120.905 36.872C120.993 36.72 121.097 36.572 121.217 36.428C121.345 36.276 121.469 36.2 121.589 36.2V36.08H120.305V36.2C120.321 36.2 120.365 36.216 120.437 36.248C120.517 36.28 120.565 36.36 120.581 36.488C120.581 36.536 120.573 36.576 120.557 36.608C120.549 36.64 120.529 36.688 120.497 36.752L118.769 39.74L116.969 36.584C116.945 36.536 116.933 36.492 116.933 36.452C116.933 36.372 116.957 36.312 117.005 36.272C117.053 36.232 117.105 36.208 117.161 36.2V36.08ZM125.841 43.88H125.901C125.965 43.88 126.021 43.86 126.069 43.82C126.117 43.772 126.157 43.716 126.189 43.652C126.229 43.588 126.257 43.52 126.273 43.448C126.297 43.376 126.309 43.308 126.309 43.244V36.824C126.309 36.768 126.297 36.704 126.273 36.632C126.257 36.56 126.229 36.492 126.189 36.428C126.157 36.364 126.117 36.312 126.069 36.272C126.021 36.224 125.965 36.2 125.901 36.2H125.841V36.08H127.569V36.2H127.509C127.445 36.2 127.389 36.224 127.341 36.272C127.293 36.312 127.253 36.364 127.221 36.428C127.189 36.492 127.161 36.56 127.137 36.632C127.121 36.704 127.113 36.768 127.113 36.824V43.556H129.741C129.893 43.556 130.025 43.52 130.137 43.448C130.249 43.376 130.341 43.288 130.413 43.184C130.493 43.072 130.549 42.956 130.581 42.836C130.621 42.708 130.641 42.592 130.641 42.488H130.761V44H125.841V43.88ZM136.663 36.08H134.947V36.2H135.007C135.071 36.2 135.127 36.224 135.175 36.272C135.223 36.312 135.263 36.364 135.295 36.428C135.335 36.492 135.363 36.56 135.379 36.632C135.395 36.704 135.403 36.768 135.403 36.824V43.22C135.403 43.284 135.395 43.356 135.379 43.436C135.363 43.508 135.335 43.58 135.295 43.652C135.263 43.716 135.223 43.772 135.175 43.82C135.127 43.86 135.071 43.88 135.007 43.88H134.947V44H136.663V43.88H136.603C136.539 43.88 136.483 43.856 136.435 43.808C136.395 43.76 136.355 43.704 136.315 43.64C136.283 43.576 136.259 43.508 136.243 43.436C136.227 43.356 136.219 43.284 136.219 43.22V36.824C136.219 36.768 136.227 36.704 136.243 36.632C136.267 36.552 136.295 36.484 136.327 36.428C136.359 36.364 136.399 36.312 136.447 36.272C136.495 36.224 136.547 36.2 136.603 36.2H136.663V36.08ZM146.157 41.876C146.157 42.276 146.077 42.62 145.917 42.908C145.757 43.188 145.549 43.416 145.293 43.592C145.045 43.768 144.761 43.896 144.441 43.976C144.129 44.056 143.817 44.096 143.505 44.096C143.185 44.096 142.909 44.064 142.677 44C142.445 43.936 142.233 43.876 142.041 43.82C141.913 43.78 141.797 43.748 141.693 43.724C141.589 43.692 141.485 43.676 141.381 43.676V42.308H141.501C141.501 42.612 141.577 42.856 141.729 43.04C141.889 43.216 142.073 43.352 142.281 43.448C142.489 43.544 142.697 43.608 142.905 43.64C143.113 43.664 143.265 43.676 143.361 43.676C143.705 43.676 144.001 43.628 144.249 43.532C144.497 43.428 144.701 43.296 144.861 43.136C145.021 42.968 145.137 42.784 145.209 42.584C145.289 42.384 145.329 42.18 145.329 41.972C145.329 41.708 145.273 41.488 145.161 41.312C145.049 41.128 144.901 40.968 144.717 40.832C144.541 40.696 144.337 40.58 144.105 40.484C143.873 40.388 143.637 40.292 143.397 40.196C143.125 40.092 142.857 39.984 142.593 39.872C142.329 39.76 142.093 39.624 141.885 39.464C141.677 39.296 141.509 39.1 141.381 38.876C141.253 38.644 141.189 38.36 141.189 38.024C141.189 37.672 141.257 37.368 141.393 37.112C141.529 36.848 141.709 36.632 141.933 36.464C142.165 36.296 142.425 36.172 142.713 36.092C143.009 36.004 143.309 35.96 143.613 35.96C143.821 35.96 144.017 35.976 144.201 36.008C144.385 36.032 144.561 36.064 144.729 36.104C144.865 36.136 144.997 36.164 145.125 36.188C145.253 36.204 145.377 36.212 145.497 36.212V37.448H145.377C145.361 37.032 145.197 36.752 144.885 36.608C144.573 36.456 144.141 36.38 143.589 36.38C143.269 36.38 143.005 36.436 142.797 36.548C142.597 36.652 142.437 36.784 142.317 36.944C142.197 37.096 142.113 37.264 142.065 37.448C142.025 37.624 142.005 37.78 142.005 37.916C142.005 38.14 142.053 38.332 142.149 38.492C142.253 38.652 142.389 38.792 142.557 38.912C142.725 39.032 142.917 39.14 143.133 39.236C143.357 39.332 143.589 39.424 143.829 39.512C144.101 39.616 144.377 39.728 144.657 39.848C144.937 39.968 145.185 40.116 145.401 40.292C145.625 40.468 145.805 40.684 145.941 40.94C146.085 41.196 146.157 41.508 146.157 41.876ZM153.311 43.88H153.251C153.187 43.88 153.131 43.856 153.083 43.808C153.043 43.76 153.003 43.704 152.963 43.64C152.931 43.576 152.907 43.508 152.891 43.436C152.875 43.356 152.867 43.284 152.867 43.22V36.524H154.283C154.411 36.524 154.523 36.552 154.619 36.608C154.715 36.664 154.795 36.736 154.859 36.824C154.923 36.904 154.971 36.996 155.003 37.1C155.035 37.196 155.051 37.292 155.051 37.388H155.171V36.08H149.783V37.388H149.903C149.903 37.292 149.919 37.196 149.951 37.1C149.983 36.996 150.031 36.904 150.095 36.824C150.159 36.736 150.239 36.664 150.335 36.608C150.431 36.552 150.543 36.524 150.671 36.524H152.063V43.22C152.063 43.284 152.055 43.356 152.039 43.436C152.023 43.508 151.995 43.576 151.955 43.64C151.923 43.704 151.883 43.76 151.835 43.808C151.787 43.856 151.731 43.88 151.667 43.88H151.607V44H153.311V43.88Z" fill="#2F3541"/>
</svg>
