<svg width="102" height="77" viewBox="0 0 102 77" fill="none" xmlns="http://www.w3.org/2000/svg">
<path fill-rule="evenodd" clip-rule="evenodd" d="M32.1053 16.55H32.2303C32.6303 16.55 32.8303 16.3667 32.8303 16C32.8303 15.8667 32.8053 15.725 32.7553 15.575L30.5053 9.5H26.1303L23.9553 15.475C23.9053 15.6083 23.8803 15.7333 23.8803 15.85C23.8803 16.0667 23.9386 16.2417 24.0553 16.375C24.1719 16.4917 24.2969 16.55 24.4303 16.55H24.5553V16.8H21.7803V16.55H21.9053C22.1219 16.55 22.3303 16.425 22.5303 16.175C22.7469 15.9083 22.9219 15.6 23.0553 15.25L28.7803 0L34.3803 15.1C34.4969 15.4333 34.6553 15.7583 34.8553 16.075C35.0719 16.3917 35.3469 16.55 35.6803 16.55H35.8053V16.8H32.1053V16.55ZM26.3803 8.65H30.2303L28.3053 3.425L26.3803 8.65ZM0.875 16.55H1C1.11667 16.55 1.225 16.5 1.325 16.4C1.425 16.3 1.50833 16.1833 1.575 16.05C1.65833 15.9167 1.71667 15.775 1.75 15.625C1.78333 15.4583 1.8 15.3083 1.8 15.175V1.85C1.8 1.73333 1.78333 1.6 1.75 1.45C1.71667 1.3 1.66667 1.15833 1.6 1.025C1.53333 0.891666 1.45 0.783333 1.35 0.7C1.25 0.6 1.13333 0.55 1 0.55H0.875V0.300001H5.7C7.01667 0.300001 8.2 0.533334 9.25 1C10.3 1.45 11.1833 2.06667 11.9 2.85C12.6333 3.61667 13.1917 4.5 13.575 5.5C13.9583 6.5 14.15 7.54167 14.15 8.625C14.15 9.64167 13.9667 10.6417 13.6 11.625C13.2333 12.5917 12.6833 13.4583 11.95 14.225C11.2167 14.9917 10.3 15.6167 9.2 16.1C8.1 16.5667 6.825 16.8 5.375 16.8H0.875V16.55ZM12.45 9C12.45 7.93333 12.2583 6.925 11.875 5.975C11.4917 5.025 10.95 4.2 10.25 3.5C9.56667 2.78333 8.75 2.21667 7.8 1.8C6.86667 1.38333 5.85 1.175 4.75 1.175H3.475V15.925H4.8C5.7 15.925 6.6 15.7917 7.5 15.525C8.41667 15.2417 9.24167 14.8167 9.975 14.25C10.7083 13.6667 11.3 12.9417 11.75 12.075C12.2167 11.2083 12.45 10.1833 12.45 9ZM47.0764 16.55H46.9514C46.818 16.55 46.7014 16.5 46.6014 16.4C46.518 16.3 46.4347 16.1833 46.3514 16.05C46.2847 15.9167 46.2347 15.775 46.2014 15.625C46.168 15.4583 46.1514 15.3083 46.1514 15.175V8.325C46.3347 8.35833 46.5264 8.39167 46.7264 8.425C46.943 8.44167 47.143 8.45833 47.3264 8.475C48.0597 9.575 48.793 10.6917 49.5264 11.825C50.2764 12.9583 51.0264 14.075 51.7764 15.175C52.0597 15.6083 52.4097 15.9917 52.8264 16.325C53.2597 16.6417 53.8097 16.8 54.4764 16.8H55.5514V16.55C55.368 16.55 55.1847 16.5083 55.0014 16.425C54.8347 16.325 54.668 16.2 54.5014 16.05C54.3514 15.9 54.2014 15.7333 54.0514 15.55C53.918 15.3667 53.793 15.1917 53.6764 15.025C53.243 14.3417 52.8014 13.6833 52.3514 13.05C51.9014 12.4 51.4597 11.7417 51.0264 11.075L49.2264 8.325C49.7597 8.225 50.2597 8.075 50.7264 7.875C51.2097 7.65833 51.6264 7.38333 51.9764 7.05C52.3264 6.7 52.6014 6.29167 52.8014 5.825C53.018 5.34167 53.1264 4.78333 53.1264 4.15C53.1264 2.88333 52.668 1.925 51.7514 1.275C50.8514 0.625 49.568 0.300001 47.9014 0.300001H43.5514V0.55H43.6764C43.793 0.55 43.9014 0.6 44.0014 0.7C44.1014 0.783333 44.1847 0.891666 44.2514 1.025C44.3347 1.15833 44.393 1.3 44.4264 1.45C44.4597 1.6 44.4764 1.73333 44.4764 1.85V15.175C44.4764 15.3083 44.4597 15.4583 44.4264 15.625C44.393 15.775 44.3347 15.9167 44.2514 16.05C44.1847 16.1833 44.1014 16.3 44.0014 16.4C43.9014 16.5 43.793 16.55 43.6764 16.55H43.5514V16.8H47.0764V16.55ZM46.1514 7.5V1.15H46.5264C47.243 1.15 47.9014 1.19167 48.5014 1.275C49.1014 1.35833 49.6097 1.51667 50.0264 1.75C50.4597 1.98333 50.793 2.3 51.0264 2.7C51.2764 3.1 51.4014 3.61667 51.4014 4.25C51.4014 4.88333 51.2847 5.40833 51.0514 5.825C50.8347 6.24167 50.5514 6.58333 50.2014 6.85C49.868 7.1 49.5014 7.28333 49.1014 7.4C48.718 7.5 48.3514 7.55 48.0014 7.55H46.9014C46.618 7.53333 46.4097 7.51667 46.2764 7.5H46.1514ZM62.2523 0.300001H65.7023V0.55C65.5857 0.566667 65.4773 0.616667 65.3773 0.7C65.2773 0.783333 65.2273 0.908333 65.2273 1.075C65.2273 1.15833 65.2523 1.25 65.3023 1.35L69.0523 7.925L72.6523 1.7C72.719 1.56667 72.7607 1.46667 72.7773 1.4C72.8107 1.33333 72.8273 1.25 72.8273 1.15C72.794 0.883334 72.694 0.716667 72.5273 0.650001C72.3773 0.583334 72.2857 0.55 72.2523 0.55V0.300001H74.9273V0.55C74.6773 0.55 74.419 0.708333 74.1523 1.025C73.9023 1.325 73.6857 1.63333 73.5023 1.95L69.6023 8.7V15.175C69.6023 15.3083 69.619 15.45 69.6523 15.6C69.7023 15.75 69.7607 15.9 69.8273 16.05C69.894 16.1833 69.9773 16.3 70.0773 16.4C70.1773 16.5 70.294 16.55 70.4273 16.55H70.5523V16.8H66.9773V16.55H67.1023C67.2357 16.55 67.3523 16.5083 67.4523 16.425C67.5523 16.325 67.6357 16.2083 67.7023 16.075C67.7857 15.925 67.844 15.775 67.8773 15.625C67.9107 15.4583 67.9273 15.3083 67.9273 15.175V8.925L63.9023 2.025C63.819 1.89167 63.719 1.74167 63.6023 1.575C63.4857 1.40833 63.3607 1.25 63.2273 1.1C63.094 0.95 62.9523 0.825001 62.8023 0.725001C62.6523 0.608334 62.5107 0.55 62.3773 0.55H62.2523V0.300001ZM89.5301 16.55H89.4051V16.8H93.1051V16.55H92.9801C92.6467 16.55 92.3717 16.3917 92.1551 16.075C91.9551 15.7583 91.7967 15.4333 91.6801 15.1L86.0801 0L80.3551 15.25C80.2217 15.6 80.0467 15.9083 79.8301 16.175C79.6301 16.425 79.4217 16.55 79.2051 16.55H79.0801V16.8H81.8551V16.55H81.7301C81.5967 16.55 81.4717 16.4917 81.3551 16.375C81.2384 16.2417 81.1801 16.0667 81.1801 15.85C81.1801 15.7333 81.2051 15.6083 81.2551 15.475L83.4301 9.5H87.8051L90.0551 15.575C90.1051 15.725 90.1301 15.8667 90.1301 16C90.1301 16.3667 89.9301 16.55 89.5301 16.55ZM85.6051 3.425L87.5301 8.65H83.6801L85.6051 3.425ZM7.225 49.55H7.35V49.8H3.8V49.55H3.925C4.05833 49.55 4.175 49.5 4.275 49.4C4.375 49.3 4.45833 49.1833 4.525 49.05C4.60833 48.9167 4.66667 48.775 4.7 48.625C4.73333 48.4583 4.75 48.3083 4.75 48.175V34.225H1.85C1.58333 34.225 1.35 34.2833 1.15 34.4C0.95 34.5167 0.783333 34.6667 0.65 34.85C0.516667 35.0167 0.416667 35.2083 0.35 35.425C0.283333 35.625 0.25 35.825 0.25 36.025H0V33.3H11.225V36.025H10.975C10.975 35.825 10.9417 35.625 10.875 35.425C10.8083 35.2083 10.7083 35.0167 10.575 34.85C10.4417 34.6667 10.275 34.5167 10.075 34.4C9.875 34.2833 9.64167 34.225 9.375 34.225H6.425V48.175C6.425 48.3083 6.44167 48.4583 6.475 48.625C6.50833 48.775 6.55833 48.9167 6.625 49.05C6.70833 49.1833 6.79167 49.3 6.875 49.4C6.975 49.5 7.09167 49.55 7.225 49.55ZM22.5193 33.3H18.9443V33.55H19.0693C19.2027 33.55 19.3193 33.6 19.4193 33.7C19.5193 33.7833 19.6027 33.8917 19.6693 34.025C19.7527 34.1583 19.811 34.3 19.8443 34.45C19.8777 34.6 19.8943 34.7333 19.8943 34.85V48.175C19.8943 48.3083 19.8777 48.4583 19.8443 48.625C19.811 48.775 19.7527 48.925 19.6693 49.075C19.6027 49.2083 19.5193 49.325 19.4193 49.425C19.3193 49.5083 19.2027 49.55 19.0693 49.55H18.9443V49.8H22.5193V49.55H22.3943C22.261 49.55 22.1443 49.5 22.0443 49.4C21.961 49.3 21.8777 49.1833 21.7943 49.05C21.7277 48.9167 21.6777 48.775 21.6443 48.625C21.611 48.4583 21.5943 48.3083 21.5943 48.175V34.85C21.5943 34.7333 21.611 34.6 21.6443 34.45C21.6943 34.2833 21.7527 34.1417 21.8193 34.025C21.886 33.8917 21.9693 33.7833 22.0693 33.7C22.1693 33.6 22.2777 33.55 22.3943 33.55H22.5193V33.3ZM37.4984 49.55H37.6234V49.8H34.0734V49.55H34.1984C34.3318 49.55 34.4484 49.5 34.5484 49.4C34.6484 49.3 34.7318 49.1833 34.7984 49.05C34.8818 48.9167 34.9401 48.775 34.9734 48.625C35.0068 48.4583 35.0234 48.3083 35.0234 48.175V34.225H32.1234C31.8568 34.225 31.6234 34.2833 31.4234 34.4C31.2234 34.5167 31.0568 34.6667 30.9234 34.85C30.7901 35.0167 30.6901 35.2083 30.6234 35.425C30.5568 35.625 30.5234 35.825 30.5234 36.025H30.2734V33.3H41.4984V36.025H41.2484C41.2484 35.825 41.2151 35.625 41.1484 35.425C41.0818 35.2083 40.9818 35.0167 40.8484 34.85C40.7151 34.6667 40.5484 34.5167 40.3484 34.4C40.1484 34.2833 39.9151 34.225 39.6484 34.225H36.6984V48.175C36.6984 48.3083 36.7151 48.4583 36.7484 48.625C36.7818 48.775 36.8318 48.9167 36.8984 49.05C36.9818 49.1833 37.0651 49.3 37.1484 49.4C37.2484 49.5 37.3651 49.55 37.4984 49.55ZM59.7977 33.75C58.7643 33.2833 57.5977 33.05 56.2977 33.05C54.931 33.05 53.7143 33.3 52.6477 33.8C51.581 34.3 50.6727 34.9583 49.9227 35.775C49.1893 36.5917 48.631 37.525 48.2477 38.575C47.8643 39.6083 47.6727 40.6583 47.6727 41.725C47.6727 42.8083 47.8643 43.85 48.2477 44.85C48.631 45.85 49.1727 46.7333 49.8727 47.5C50.5893 48.2667 51.456 48.8833 52.4727 49.35C53.506 49.8167 54.6643 50.05 55.9477 50.05C57.1477 50.05 58.2727 49.8417 59.3227 49.425C60.3893 48.9917 61.3227 48.4 62.1227 47.65C62.9227 46.9 63.5477 46 63.9977 44.95C64.4643 43.9 64.6977 42.75 64.6977 41.5C64.6977 40.3833 64.4977 39.3167 64.0977 38.3C63.7143 37.2667 63.156 36.3667 62.4227 35.6C61.706 34.8167 60.831 34.2 59.7977 33.75ZM59.1977 48.425C58.3643 48.875 57.3893 49.125 56.2727 49.175C55.2727 49.175 54.3477 48.9417 53.4977 48.475C52.6643 48.0083 51.9393 47.4 51.3227 46.65C50.706 45.9 50.2227 45.0667 49.8727 44.15C49.5227 43.2167 49.3477 42.2917 49.3477 41.375C49.3477 40.525 49.4977 39.6583 49.7977 38.775C50.0977 37.8917 50.531 37.0917 51.0977 36.375C51.681 35.6583 52.381 35.075 53.1977 34.625C54.0143 34.1583 54.9393 33.925 55.9727 33.925C57.0393 33.925 57.9977 34.1667 58.8477 34.65C59.7143 35.1167 60.456 35.7333 61.0727 36.5C61.6893 37.25 62.1643 38.0917 62.4977 39.025C62.831 39.9583 62.9977 40.8833 62.9977 41.8C62.9977 42.6333 62.856 43.475 62.5727 44.325C62.306 45.175 61.8893 45.9583 61.3227 46.675C60.756 47.375 60.0477 47.9583 59.1977 48.425ZM72.7742 34.175C72.7742 34.275 72.7992 34.4 72.8492 34.55L77.2492 46.4L81.6492 34.425C81.6659 34.3917 81.6825 34.3417 81.6992 34.275C81.7159 34.2083 81.7242 34.1583 81.7242 34.125C81.7242 33.925 81.6409 33.7833 81.4742 33.7C81.3242 33.6 81.1826 33.55 81.0492 33.55V33.3H83.7742V33.55C83.5242 33.55 83.2909 33.6167 83.0742 33.75C82.8742 33.8833 82.7159 34.1083 82.5992 34.425L76.8742 50.1L71.0242 34.5C70.9242 34.25 70.7742 34.0333 70.5742 33.85C70.3909 33.6667 70.1576 33.5667 69.8742 33.55V33.3H73.4242V33.55C73.2742 33.55 73.1242 33.6083 72.9742 33.725C72.8409 33.825 72.7742 33.975 72.7742 34.175ZM96.9031 49.55H96.7781V49.8H100.478V49.55H100.353C100.02 49.55 99.7448 49.3917 99.5281 49.075C99.3281 48.7583 99.1698 48.4333 99.0531 48.1L93.4531 33L87.7281 48.25C87.5948 48.6 87.4198 48.9083 87.2031 49.175C87.0031 49.425 86.7948 49.55 86.5781 49.55H86.4531V49.8H89.2281V49.55H89.1031C88.9698 49.55 88.8448 49.4917 88.7281 49.375C88.6115 49.2417 88.5531 49.0667 88.5531 48.85C88.5531 48.7333 88.5781 48.6083 88.6281 48.475L90.8031 42.5H95.1781L97.4281 48.575C97.4781 48.725 97.5031 48.8667 97.5031 49C97.5031 49.3667 97.3031 49.55 96.9031 49.55ZM92.9781 36.425L94.9031 41.65H91.0531L92.9781 36.425ZM15.8438 76.68H15.9038C16.0958 76.68 16.1918 76.592 16.1918 76.416C16.1918 76.352 16.1798 76.284 16.1558 76.212L15.0758 73.296H12.9758L11.9318 76.164C11.9078 76.228 11.8958 76.288 11.8958 76.344C11.8958 76.448 11.9238 76.532 11.9798 76.596C12.0358 76.652 12.0958 76.68 12.1598 76.68H12.2198V76.8H10.8878V76.68H10.9478C11.0518 76.68 11.1518 76.62 11.2478 76.5C11.3518 76.372 11.4358 76.224 11.4998 76.056L14.2478 68.736L16.9358 75.984C16.9918 76.144 17.0678 76.3 17.1638 76.452C17.2678 76.604 17.3998 76.68 17.5598 76.68H17.6198V76.8H15.8438V76.68ZM14.9438 72.888L14.0198 70.38L13.0958 72.888H14.9438ZM5.10298 76.68H5.16298C5.21898 76.68 5.27098 76.66 5.31898 76.62C5.36698 76.572 5.40698 76.516 5.43898 76.452C5.47898 76.38 5.50698 76.308 5.52298 76.236C5.53898 76.156 5.54698 76.084 5.54698 76.02V72.756H1.70698V76.02C1.70698 76.084 1.71498 76.156 1.73098 76.236C1.74698 76.308 1.77098 76.376 1.80298 76.44C1.83498 76.504 1.87098 76.56 1.91098 76.608C1.95898 76.656 2.01498 76.68 2.07898 76.68H2.13898V76.8H0.458984V76.68H0.518984C0.574984 76.68 0.626984 76.66 0.674984 76.62C0.722984 76.572 0.762984 76.516 0.794984 76.452C0.834984 76.38 0.862984 76.308 0.878984 76.236C0.894984 76.156 0.902984 76.084 0.902984 76.02V69.624C0.902984 69.568 0.894984 69.504 0.878984 69.432C0.862984 69.36 0.838984 69.292 0.806984 69.228C0.774984 69.164 0.734984 69.112 0.686984 69.072C0.638984 69.024 0.582984 69 0.518984 69H0.458984V68.88H2.13898V69H2.07898C2.01498 69 1.95898 69.024 1.91098 69.072C1.86298 69.112 1.82298 69.164 1.79098 69.228C1.76698 69.292 1.74698 69.36 1.73098 69.432C1.71498 69.504 1.70698 69.568 1.70698 69.624V72.336H5.54698V69.624C5.54698 69.568 5.53898 69.504 5.52298 69.432C5.50698 69.36 5.48298 69.292 5.45098 69.228C5.41898 69.164 5.37898 69.112 5.33098 69.072C5.28298 69.024 5.22698 69 5.16298 69H5.10298V68.88H6.78298V69H6.72299C6.65899 69 6.60298 69.024 6.55498 69.072C6.50698 69.112 6.46698 69.164 6.43498 69.228C6.41098 69.292 6.39099 69.36 6.37498 69.432C6.35898 69.504 6.35098 69.568 6.35098 69.624V76.02C6.35098 76.084 6.35898 76.156 6.37498 76.236C6.39898 76.308 6.42698 76.376 6.45898 76.44C6.49098 76.504 6.52699 76.56 6.56699 76.608C6.61498 76.656 6.66699 76.68 6.72299 76.68H6.78298V76.8H5.10298V76.68ZM23.582 68.88H21.866V69H21.926C21.99 69 22.046 69.024 22.094 69.072C22.142 69.112 22.182 69.164 22.214 69.228C22.254 69.292 22.282 69.36 22.298 69.432C22.314 69.504 22.322 69.568 22.322 69.624V76.02C22.322 76.084 22.314 76.156 22.298 76.236C22.282 76.308 22.254 76.38 22.214 76.452C22.182 76.516 22.142 76.572 22.094 76.62C22.046 76.66 21.99 76.68 21.926 76.68H21.866V76.8H23.582V76.68H23.522C23.458 76.68 23.402 76.656 23.354 76.608C23.314 76.56 23.274 76.504 23.234 76.44C23.202 76.376 23.178 76.308 23.162 76.236C23.146 76.156 23.138 76.084 23.138 76.02V69.624C23.138 69.568 23.146 69.504 23.162 69.432C23.186 69.352 23.214 69.284 23.246 69.228C23.278 69.164 23.318 69.112 23.366 69.072C23.414 69.024 23.466 69 23.522 69H23.582V68.88ZM29.8479 76.68H29.9079V76.8H28.2159V76.68H28.2759C28.3319 76.68 28.3839 76.656 28.4319 76.608C28.4799 76.56 28.5199 76.504 28.5519 76.44C28.5919 76.376 28.6199 76.308 28.6359 76.236C28.6519 76.156 28.6599 76.084 28.6599 76.02V69.624C28.6599 69.568 28.6519 69.504 28.6359 69.432C28.6199 69.36 28.5919 69.292 28.5519 69.228C28.5199 69.164 28.4799 69.112 28.4319 69.072C28.3839 69.024 28.3319 69 28.2759 69H28.2159V68.88H30.3039C31.1039 68.88 31.7199 69.036 32.1519 69.348C32.5919 69.66 32.8119 70.12 32.8119 70.728C32.8119 71.032 32.7599 71.3 32.6559 71.532C32.5599 71.756 32.4279 71.952 32.2599 72.12C32.0919 72.28 31.8919 72.412 31.6599 72.516C31.4359 72.612 31.1959 72.684 30.9399 72.732L31.8039 74.052C32.0119 74.372 32.2239 74.688 32.4399 75C32.6559 75.304 32.8679 75.62 33.0759 75.948C33.1319 76.028 33.1919 76.112 33.2559 76.2C33.3279 76.288 33.3999 76.368 33.4719 76.44C33.5519 76.512 33.6319 76.572 33.7119 76.62C33.7999 76.66 33.8879 76.68 33.9759 76.68V76.8H33.4599C33.1399 76.8 32.8759 76.724 32.6679 76.572C32.4679 76.412 32.2999 76.228 32.1639 76.02C31.8039 75.492 31.4439 74.956 31.0839 74.412C30.7319 73.868 30.3799 73.332 30.0279 72.804C29.9399 72.796 29.8439 72.788 29.7399 72.78C29.6439 72.764 29.5519 72.748 29.4639 72.732V76.02C29.4639 76.084 29.4719 76.156 29.4879 76.236C29.5039 76.308 29.5279 76.376 29.5599 76.44C29.5999 76.504 29.6399 76.56 29.6799 76.608C29.7279 76.656 29.7839 76.68 29.8479 76.68ZM29.4639 69.288V72.336H29.5239C29.5879 72.344 29.6879 72.352 29.8239 72.36H30.3519C30.5199 72.36 30.6959 72.336 30.8799 72.288C31.0719 72.232 31.2479 72.144 31.4079 72.024C31.5759 71.896 31.7119 71.732 31.8159 71.532C31.9279 71.332 31.9839 71.08 31.9839 70.776C31.9839 70.472 31.9239 70.224 31.8039 70.032C31.6919 69.84 31.5319 69.688 31.3239 69.576C31.1239 69.464 30.8799 69.388 30.5919 69.348C30.3039 69.308 29.9879 69.288 29.6439 69.288H29.4639ZM49.3936 75.708C49.5536 75.42 49.6336 75.076 49.6336 74.676C49.6336 74.308 49.5616 73.996 49.4176 73.74C49.2816 73.484 49.1016 73.268 48.8776 73.092C48.6616 72.916 48.4136 72.768 48.1336 72.648C47.8536 72.528 47.5776 72.416 47.3056 72.312C47.0656 72.224 46.8336 72.132 46.6096 72.036C46.3936 71.94 46.2016 71.832 46.0336 71.712C45.8656 71.592 45.7296 71.452 45.6256 71.292C45.5296 71.132 45.4816 70.94 45.4816 70.716C45.4816 70.58 45.5016 70.424 45.5416 70.248C45.5896 70.064 45.6736 69.896 45.7936 69.744C45.9136 69.584 46.0736 69.452 46.2736 69.348C46.4816 69.236 46.7456 69.18 47.0656 69.18C47.6176 69.18 48.0496 69.256 48.3616 69.408C48.6736 69.552 48.8376 69.832 48.8536 70.248H48.9736V69.012C48.8536 69.012 48.7296 69.004 48.6016 68.988C48.4736 68.964 48.3416 68.936 48.2056 68.904C48.0376 68.864 47.8616 68.832 47.6776 68.808C47.4936 68.776 47.2976 68.76 47.0896 68.76C46.7856 68.76 46.4856 68.804 46.1896 68.892C45.9016 68.972 45.6416 69.096 45.4096 69.264C45.1856 69.432 45.0056 69.648 44.8696 69.912C44.7336 70.168 44.6656 70.472 44.6656 70.824C44.6656 71.16 44.7296 71.444 44.8576 71.676C44.9856 71.9 45.1536 72.096 45.3616 72.264C45.5696 72.424 45.8056 72.56 46.0696 72.672C46.3336 72.784 46.6016 72.892 46.8736 72.996C47.1136 73.092 47.3496 73.188 47.5816 73.284C47.8136 73.38 48.0176 73.496 48.1936 73.632C48.3776 73.768 48.5256 73.928 48.6376 74.112C48.7496 74.288 48.8056 74.508 48.8056 74.772C48.8056 74.98 48.7656 75.184 48.6856 75.384C48.6136 75.584 48.4976 75.768 48.3376 75.936C48.1776 76.096 47.9736 76.228 47.7256 76.332C47.4776 76.428 47.1816 76.476 46.8376 76.476C46.7416 76.476 46.5896 76.464 46.3816 76.44C46.1736 76.408 45.9656 76.344 45.7576 76.248C45.5496 76.152 45.3656 76.016 45.2056 75.84C45.0536 75.656 44.9776 75.412 44.9776 75.108H44.8576V76.476C44.9616 76.476 45.0656 76.492 45.1696 76.524C45.2736 76.548 45.3896 76.58 45.5176 76.62C45.7096 76.676 45.9216 76.736 46.1536 76.8C46.3856 76.864 46.6616 76.896 46.9816 76.896C47.2936 76.896 47.6056 76.856 47.9176 76.776C48.2376 76.696 48.5216 76.568 48.7696 76.392C49.0256 76.216 49.2336 75.988 49.3936 75.708ZM56.7271 76.68H56.7871V76.8H55.0831V76.68H55.1431C55.2071 76.68 55.2631 76.656 55.3111 76.608C55.3591 76.56 55.3991 76.504 55.4311 76.44C55.4711 76.376 55.4991 76.308 55.5151 76.236C55.5311 76.156 55.5391 76.084 55.5391 76.02V69.324H54.1471C54.0191 69.324 53.9071 69.352 53.8111 69.408C53.7151 69.464 53.6351 69.536 53.5711 69.624C53.5071 69.704 53.4591 69.796 53.4271 69.9C53.3951 69.996 53.3791 70.092 53.3791 70.188H53.2591V68.88H58.6471V70.188H58.5271C58.5271 70.092 58.5111 69.996 58.4791 69.9C58.4471 69.796 58.3991 69.704 58.3351 69.624C58.2711 69.536 58.1911 69.464 58.0951 69.408C57.9991 69.352 57.8871 69.324 57.7591 69.324H56.3431V76.02C56.3431 76.084 56.3511 76.156 56.3671 76.236C56.3831 76.308 56.4071 76.376 56.4391 76.44C56.4791 76.504 56.5191 76.56 56.5591 76.608C56.6071 76.656 56.6631 76.68 56.7271 76.68ZM63.9364 68.88H62.2804V69H62.3404C62.4044 69 62.4724 69.028 62.5444 69.084C62.6164 69.132 62.6844 69.192 62.7484 69.264C62.8124 69.336 62.8724 69.412 62.9284 69.492C62.9844 69.572 63.0324 69.644 63.0724 69.708L65.0044 73.02V76.02C65.0044 76.084 64.9964 76.156 64.9804 76.236C64.9644 76.308 64.9364 76.38 64.8964 76.452C64.8644 76.516 64.8244 76.572 64.7764 76.62C64.7284 76.66 64.6724 76.68 64.6084 76.68H64.5484V76.8H66.2644V76.68H66.2044C66.1404 76.68 66.0844 76.656 66.0364 76.608C65.9884 76.56 65.9484 76.504 65.9164 76.44C65.8844 76.368 65.8564 76.296 65.8324 76.224C65.8164 76.152 65.8084 76.084 65.8084 76.02V72.912L67.6804 69.672C67.7684 69.52 67.8724 69.372 67.9924 69.228C68.1204 69.076 68.2444 69 68.3644 69V68.88H67.0804V69C67.0964 69 67.1404 69.016 67.2124 69.048C67.2924 69.08 67.3404 69.16 67.3564 69.288C67.3564 69.336 67.3484 69.376 67.3324 69.408C67.3244 69.44 67.3044 69.488 67.2724 69.552L65.5444 72.54L63.7444 69.384C63.7204 69.336 63.7084 69.292 63.7084 69.252C63.7084 69.172 63.7324 69.112 63.7804 69.072C63.8284 69.032 63.8804 69.008 63.9364 69V68.88ZM72.6159 76.68H72.6759C72.7399 76.68 72.7959 76.66 72.8439 76.62C72.8919 76.572 72.9319 76.516 72.9639 76.452C73.0039 76.388 73.0319 76.32 73.0479 76.248C73.0719 76.176 73.0839 76.108 73.0839 76.044V69.624C73.0839 69.568 73.0719 69.504 73.0479 69.432C73.0319 69.36 73.0039 69.292 72.9639 69.228C72.9319 69.164 72.8919 69.112 72.8439 69.072C72.7959 69.024 72.7399 69 72.6759 69H72.6159V68.88H74.3439V69H74.2839C74.2199 69 74.1639 69.024 74.1159 69.072C74.0679 69.112 74.0279 69.164 73.9959 69.228C73.9639 69.292 73.9359 69.36 73.9119 69.432C73.8959 69.504 73.8879 69.568 73.8879 69.624V76.356H76.5159C76.6679 76.356 76.7999 76.32 76.9119 76.248C77.0239 76.176 77.1159 76.088 77.1879 75.984C77.2679 75.872 77.3239 75.756 77.3559 75.636C77.3959 75.508 77.4159 75.392 77.4159 75.288H77.5359V76.8H72.6159V76.68ZM83.438 68.88H81.722V69H81.7821C81.8461 69 81.9021 69.024 81.9501 69.072C81.998 69.112 82.038 69.164 82.07 69.228C82.11 69.292 82.138 69.36 82.154 69.432C82.17 69.504 82.178 69.568 82.178 69.624V76.02C82.178 76.084 82.17 76.156 82.154 76.236C82.138 76.308 82.11 76.38 82.07 76.452C82.038 76.516 81.998 76.572 81.9501 76.62C81.9021 76.66 81.8461 76.68 81.7821 76.68H81.722V76.8H83.438V76.68H83.3781C83.314 76.68 83.258 76.656 83.21 76.608C83.17 76.56 83.1301 76.504 83.09 76.44C83.0581 76.376 83.034 76.308 83.0181 76.236C83.0021 76.156 82.994 76.084 82.994 76.02V69.624C82.994 69.568 83.0021 69.504 83.0181 69.432C83.0421 69.352 83.0701 69.284 83.1021 69.228C83.134 69.164 83.174 69.112 83.222 69.072C83.27 69.024 83.3221 69 83.3781 69H83.438V68.88ZM92.932 74.676C92.932 75.076 92.852 75.42 92.692 75.708C92.532 75.988 92.324 76.216 92.068 76.392C91.82 76.568 91.536 76.696 91.216 76.776C90.904 76.856 90.592 76.896 90.28 76.896C89.96 76.896 89.684 76.864 89.452 76.8C89.22 76.736 89.008 76.676 88.816 76.62C88.688 76.58 88.572 76.548 88.468 76.524C88.364 76.492 88.26 76.476 88.156 76.476V75.108H88.276C88.276 75.412 88.352 75.656 88.504 75.84C88.664 76.016 88.848 76.152 89.056 76.248C89.264 76.344 89.472 76.408 89.68 76.44C89.888 76.464 90.04 76.476 90.136 76.476C90.48 76.476 90.776 76.428 91.024 76.332C91.272 76.228 91.476 76.096 91.636 75.936C91.796 75.768 91.912 75.584 91.984 75.384C92.064 75.184 92.104 74.98 92.104 74.772C92.104 74.508 92.048 74.288 91.936 74.112C91.824 73.928 91.676 73.768 91.492 73.632C91.316 73.496 91.112 73.38 90.88 73.284C90.648 73.188 90.412 73.092 90.172 72.996C89.9 72.892 89.632 72.784 89.368 72.672C89.104 72.56 88.868 72.424 88.66 72.264C88.452 72.096 88.284 71.9 88.156 71.676C88.028 71.444 87.964 71.16 87.964 70.824C87.964 70.472 88.032 70.168 88.168 69.912C88.304 69.648 88.484 69.432 88.708 69.264C88.94 69.096 89.2 68.972 89.488 68.892C89.784 68.804 90.084 68.76 90.388 68.76C90.596 68.76 90.792 68.776 90.976 68.808C91.16 68.832 91.336 68.864 91.504 68.904C91.64 68.936 91.772 68.964 91.9 68.988C92.028 69.004 92.152 69.012 92.272 69.012V70.248H92.152C92.136 69.832 91.972 69.552 91.66 69.408C91.348 69.256 90.916 69.18 90.364 69.18C90.044 69.18 89.78 69.236 89.572 69.348C89.372 69.452 89.212 69.584 89.092 69.744C88.972 69.896 88.888 70.064 88.84 70.248C88.8 70.424 88.78 70.58 88.78 70.716C88.78 70.94 88.828 71.132 88.924 71.292C89.028 71.452 89.164 71.592 89.332 71.712C89.5 71.832 89.692 71.94 89.908 72.036C90.132 72.132 90.364 72.224 90.604 72.312C90.876 72.416 91.152 72.528 91.432 72.648C91.712 72.768 91.96 72.916 92.176 73.092C92.4 73.268 92.58 73.484 92.716 73.74C92.86 73.996 92.932 74.308 92.932 74.676ZM100.086 76.68H100.026C99.9615 76.68 99.9055 76.656 99.8575 76.608C99.8175 76.56 99.7775 76.504 99.7375 76.44C99.7055 76.376 99.6815 76.308 99.6655 76.236C99.6495 76.156 99.6415 76.084 99.6415 76.02V69.324H101.058C101.186 69.324 101.298 69.352 101.394 69.408C101.49 69.464 101.57 69.536 101.634 69.624C101.698 69.704 101.746 69.796 101.778 69.9C101.81 69.996 101.826 70.092 101.826 70.188H101.946V68.88H96.5575V70.188H96.6775C96.6775 70.092 96.6935 69.996 96.7255 69.9C96.7575 69.796 96.8055 69.704 96.8695 69.624C96.9335 69.536 97.0135 69.464 97.1095 69.408C97.2055 69.352 97.3175 69.324 97.4455 69.324H98.8375V76.02C98.8375 76.084 98.8295 76.156 98.8135 76.236C98.7975 76.308 98.7695 76.376 98.7295 76.44C98.6975 76.504 98.6575 76.56 98.6095 76.608C98.5615 76.656 98.5055 76.68 98.4415 76.68H98.3815V76.8H100.086V76.68Z" fill="#2F3541"/>
</svg>
