<svg width="22" height="22" viewBox="0 0 22 22" fill="none" xmlns="http://www.w3.org/2000/svg">
<path d="M16.359 3.87448e-10C14.9531 -1.69227e-05 13.5869 0.554321 12.5777 1.56891C12.5777 1.56891 1.00771 12.8569 1.00481 12.8597C0.312189 13.5675 1.6641e-05 14.5025 0 15.5127C3.49744e-05 17.6487 1.73454 19.4614 3.88702 19.4615C4.90623 19.4614 5.87741 19.1746 6.60176 18.4478C6.60176 18.4478 17.8957 7.15416 17.9014 7.14815C18.2161 6.81153 18.6154 6.32528 18.6154 5.64102C18.6154 4.459 17.6822 3.38461 16.359 3.38461C15.6087 3.38461 15.127 3.84129 14.8518 4.08974C14.8488 4.09265 7.79167 10.8678 7.79167 10.8678C7.57706 11.0708 7.56656 11.4508 7.76962 11.6654C7.97269 11.8801 8.3527 11.8906 8.56731 11.6874L15.6186 4.91822C15.9228 4.6425 16.0255 4.51277 16.359 4.51277C17.122 4.51277 17.4872 4.99239 17.4872 5.64097C17.4872 5.83047 17.3117 6.12592 17.0729 6.38136L5.80849 17.6458C5.33014 18.1257 4.70775 18.3332 3.88702 18.3333C2.37188 18.3332 1.12823 17.038 1.1282 15.5128C1.12822 14.7256 1.33646 14.1384 1.80689 13.653L13.371 2.37099C14.1665 1.57117 15.2546 1.12819 16.359 1.1282C18.9233 1.12823 20.8718 3.1974 20.8718 5.64102C20.8718 6.89605 20.4569 7.80762 19.629 8.62019L7.78285 20.4663C7.56598 20.6724 7.55998 21.0593 7.77034 21.272C7.98071 21.4847 8.36768 21.483 8.57612 21.2684L20.4223 9.42222C21.4323 8.43091 22 7.16224 22 5.64102C22 2.59284 19.5342 3.1026e-05 16.359 3.87448e-10Z" fill="#C4C4C4"/>
</svg>
