<svg width="32" height="32" viewBox="0 0 32 32" fill="none" xmlns="http://www.w3.org/2000/svg">
<path fill-rule="evenodd" clip-rule="evenodd" d="M11.449 14.9876C13.2946 9.0156 16.9633 3.77374 21.9389 0L13.9222 19.0275C13.8502 19.198 13.738 19.3484 13.5952 19.4658C13.4524 19.5832 13.2832 19.6641 13.1023 19.7016L12.5252 19.8243C12.3085 19.8692 12.1095 19.9762 11.9524 20.1323C11.7954 20.2885 11.687 20.487 11.6406 20.7037L11.5315 21.2081C11.9373 21.234 12.3333 21.3443 12.6943 21.5318C13.0553 21.7194 13.3734 21.9801 13.6284 22.2975C13.8833 22.6149 14.0695 22.982 14.1751 23.3754C14.2807 23.7688 14.3035 24.1799 14.2418 24.5826C14.1802 24.9853 14.0356 25.3707 13.8172 25.7144C13.5988 26.058 13.3114 26.3524 12.9733 26.5787C12.6352 26.805 12.2537 26.9584 11.8532 27.029C11.4527 27.0996 11.0419 27.086 10.6469 26.9889C10.3336 27.4665 10.1593 28.0221 10.1436 28.5933C10.1278 29.1645 10.2713 29.7289 10.5578 30.223C10.6324 30.3541 10.6522 30.5093 10.613 30.655C10.5738 30.8006 10.4787 30.9248 10.3484 31.0005C10.2182 31.0762 10.0633 31.0973 9.91765 31.0591C9.77197 31.0209 9.64727 30.9266 9.57073 30.7967C9.19198 30.1434 8.99528 29.4003 9.00116 28.6449C9.00703 27.8895 9.21528 27.1496 9.60415 26.5024C9.28878 26.2704 9.02297 25.9775 8.82241 25.6409C8.62185 25.3044 8.4906 24.931 8.4364 24.5428C8.3822 24.1546 8.40614 23.7595 8.50683 23.3808C8.60751 23.002 8.78289 22.6473 9.02262 22.3375L11.449 14.9876ZM12.8705 18.5833L18.8864 4.30769C15.973 7.46263 13.8031 11.2319 12.5363 15.3381L11.2529 19.2239C11.5497 18.9631 11.909 18.7839 12.2957 18.7039L12.8705 18.5833ZM11.991 22.4644C11.7681 22.3771 11.53 22.3355 11.2908 22.342C10.8245 22.3549 10.3817 22.5497 10.0567 22.8849C9.73162 23.2201 9.55008 23.6692 9.55068 24.1365C9.54449 24.3757 9.58619 24.6138 9.67332 24.8367C9.76044 25.0596 9.89124 25.2627 10.058 25.4342C10.2247 25.6056 10.4241 25.7418 10.6442 25.8349C10.8644 25.9279 11.1009 25.9758 11.3398 25.9758C11.5788 25.9758 11.8153 25.9279 12.0354 25.8349C12.2556 25.7418 12.4549 25.6056 12.6217 25.4342C12.7884 25.2627 12.9192 25.0596 13.0064 24.8367C13.0935 24.6138 13.1352 24.3757 13.129 24.1365C13.1293 23.8968 13.0816 23.6594 12.9888 23.4385C12.8959 23.2175 12.7597 23.0175 12.5884 22.8502C12.417 22.6829 12.2139 22.5517 11.991 22.4644ZM11.4129 11.7612L11.4129 11.7612V11.7611L11.4129 11.7612ZM11.4129 11.7612L8.14433 12.9663C7.97078 13.0304 7.81541 13.1359 7.69159 13.2736C7.56777 13.4112 7.47922 13.577 7.43357 13.7565L7.28874 14.3257C7.23422 14.5407 7.11839 14.7352 6.95538 14.8855C6.79237 15.0357 6.58924 15.1351 6.37077 15.1716L5.86053 15.2583C5.84788 14.6034 5.6169 13.9715 5.20436 13.4632C4.79183 12.955 4.22144 12.5995 3.58396 12.4534C2.94648 12.3074 2.27855 12.3791 1.68647 12.6572C1.09438 12.9353 0.612154 13.4038 0.316536 13.9881C0.0209173 14.5724 -0.0711089 15.239 0.0551021 15.8818C0.181313 16.5246 0.518509 17.1066 1.01303 17.5352C1.50755 17.9638 2.13097 18.2145 2.7841 18.2472C3.43722 18.28 4.0825 18.0928 4.61727 17.7158L9.831 16.2539L10.2632 14.946L7.82794 15.629C8.10118 15.3444 8.29617 14.9937 8.39388 14.6112L8.53871 14.0398L10.8537 13.1849C11.0284 12.7057 11.2148 12.2311 11.4129 11.7612ZM3.58448 13.6404C3.36147 13.553 3.12321 13.5113 2.88381 13.5178C2.41674 13.5302 1.97303 13.725 1.64746 14.0607C1.32189 14.3964 1.14029 14.8463 1.14144 15.3144C1.14144 15.79 1.33006 16.2462 1.6658 16.5825C2.00154 16.9188 2.4569 17.1078 2.93171 17.1078C3.40652 17.1078 3.86188 16.9188 4.19762 16.5825C4.53336 16.2462 4.72198 15.79 4.72198 15.3144C4.72257 15.0745 4.6751 14.837 4.58237 14.6158C4.48964 14.3946 4.35354 14.1943 4.18213 14.0267C4.01073 13.8592 3.8075 13.7278 3.58448 13.6404ZM23.1954 24.086L17.7174 31.0757C17.624 31.1949 17.5817 31.3464 17.5997 31.4969C17.6178 31.6473 17.6948 31.7845 17.8138 31.878C17.9328 31.9716 18.084 32.014 18.2342 31.9959C18.3844 31.9778 18.5213 31.9006 18.6147 31.7814L31.8105 14.9438C31.9122 14.8141 31.9582 14.6493 31.9386 14.4856C31.9189 14.3219 31.8352 14.1728 31.7058 14.0709L28.9545 11.907C28.8354 11.8151 28.6848 11.7739 28.5356 11.7926C28.3864 11.8113 28.2505 11.8883 28.1577 12.0068C28.0648 12.1253 28.0224 12.2756 28.0397 12.4253C28.057 12.5749 28.1326 12.7117 28.25 12.8058L30.5923 14.648L30.24 15.0976L27.8977 13.2554C27.7786 13.1638 27.6282 13.1229 27.4791 13.1417C27.3301 13.1605 27.1945 13.2375 27.1017 13.3559C27.0089 13.4742 26.9665 13.6245 26.9837 13.774C27.0008 13.9234 27.0762 14.06 27.1933 14.1542L29.5356 15.9964L29.1833 16.4456L26.8411 14.6034C26.722 14.5109 26.5712 14.4693 26.4217 14.4878C26.2721 14.5063 26.1359 14.5833 26.0429 14.702C25.9498 14.8208 25.9074 14.9716 25.925 15.1216C25.9426 15.2715 26.0187 15.4083 26.1366 15.5022L28.4789 17.3444L28.1267 17.794L25.7844 15.9518C25.6652 15.8599 25.5147 15.8189 25.3655 15.8376C25.2162 15.8562 25.0804 15.9331 24.9876 16.0516C24.8947 16.1701 24.8523 16.3206 24.8696 16.4702C24.8869 16.6199 24.9625 16.7565 25.0799 16.8506L27.4222 18.6928L27.0699 19.1424L24.7276 17.3004C24.6085 17.2084 24.458 17.1673 24.3087 17.186C24.1595 17.2046 24.0237 17.2815 23.9308 17.4C23.838 17.5185 23.7956 17.669 23.8129 17.8186C23.8302 17.9683 23.9058 18.1051 24.0232 18.1992L26.3655 20.0412L26.0132 20.4904L23.671 18.6483C23.5519 18.5557 23.4011 18.5142 23.2516 18.5327C23.102 18.5511 22.9658 18.6282 22.8728 18.747C22.7797 18.8657 22.7373 19.0165 22.7549 19.1664C22.7725 19.3163 22.8485 19.4531 22.9665 19.5471L25.3088 21.3892L24.9565 21.8388L22.6142 19.9968C22.4952 19.9042 22.3444 19.8625 22.1948 19.8809C22.0452 19.8994 21.9089 19.9765 21.8158 20.0952C21.7228 20.214 21.6804 20.3648 21.698 20.5148C21.7156 20.6648 21.7917 20.8017 21.9098 20.8956L24.2521 22.7376L23.8998 23.1868L21.5575 21.3452C21.4384 21.2532 21.2878 21.212 21.1386 21.2307C20.9893 21.2493 20.8535 21.3263 20.7606 21.4448C20.6677 21.5634 20.6253 21.7138 20.6426 21.8635C20.66 22.0131 20.7356 22.1499 20.8531 22.244L23.1954 24.086ZM18.1033 12.0461L17.4176 13.6736C21.3013 11.8175 24.7382 9.14192 27.4925 5.83014L19.4763 8.7874L18.8688 10.2291L23.0553 8.68499C21.5261 9.97515 19.8664 11.1016 18.1033 12.0461Z" fill="white"/>
</svg>
